<svg width="3067" height="1940" viewBox="0 0 3067 1940" fill="none" xmlns="http://www.w3.org/2000/svg">
<g clip-path="url(#clip0)">
<path d="M3107 -7V1904.48L2941.56 1927.48L2807.01 1939.58C2738.99 1939.58 2717.51 1939.7 2709.7 1939.58H2643.66C2577.13 1939.58 2546.23 1939.79 2539.9 1939.58C2520.49 1939.04 2465.4 1940.76 2446.06 1939.58C2122.81 1920 1818 1831.46 1510.74 1678.42C728.833 1339.56 -14.0498 1722.13 -14.0498 1722.13V-7H3107Z" fill="#6EDDB5"/>
<path opacity="0.1" d="M618.744 -9L457.784 100.969L278.894 223.183L259.706 236.304L113.037 336.501L-15.0479 424V197.34L42.7162 157.877L54.9972 149.479L113.037 109.841L125.996 100.969L286.98 -9H618.744Z" fill="black"/>
<path opacity="0.1" d="M1052.92 -9L799.121 164.492L555.473 331.029L536.275 344.165L518.509 356.3L-15.0479 721V494.063L186.535 356.3L319.164 265.65L331.451 257.244L559.896 101.091L720.971 -9H1052.92Z" fill="black"/>
<path d="M362.985 1247.11C320.539 1283.28 265.418 1288 265.418 1288C265.418 1288 279.113 1234.07 321.558 1197.89C364.004 1161.72 419.125 1157 419.125 1157C419.125 1157 405.429 1210.93 362.985 1247.11Z" fill="#22A073"/>
<path d="M321.788 1268.28C302.546 1277.21 282.042 1283.08 261.008 1285.69L257.433 1286L258.32 1282.5C258.459 1281.96 272.644 1227.65 315.017 1191.57C357.397 1155.48 412.999 1150.35 413.552 1150.3L417.128 1150L416.241 1153.5C416.102 1154.04 401.918 1208.34 359.544 1244.42C348.085 1254.05 335.384 1262.07 321.788 1268.28ZM264.335 1280.12C277.332 1278.3 321.43 1270.16 356.244 1240.51C391.063 1210.85 406.302 1168.47 410.227 1155.87C397.233 1157.7 353.138 1165.83 318.318 1195.48C283.499 1225.14 268.259 1267.53 264.335 1280.12Z" fill="#3F3D56"/>
<path d="M155.737 1180.56C174.048 1233.03 158.34 1286 158.34 1286C158.34 1286 112.943 1253.91 94.6318 1201.44C76.3212 1148.97 92.0299 1096 92.0299 1096C92.0299 1096 137.426 1128.09 155.737 1180.56Z" fill="#22A073"/>
<path d="M55.0413 1409.01C73.1211 1461.75 57.6112 1515 57.6112 1515C57.6112 1515 12.7896 1482.73 -5.2901 1429.99C-23.3688 1377.25 -7.859 1324 -7.859 1324C-7.859 1324 36.9626 1356.26 55.0413 1409.01Z" fill="#22A073"/>
<path d="M157.37 1337.37C172.086 1458.37 109.787 1572.68 109.134 1574L104.724 1571.65C105.484 1570.11 182.157 1431.29 144.441 1289.37L149.218 1288C154.727 1309.03 156.147 1315.61 157.37 1337.37Z" fill="#3F3D56"/>
<path d="M64.3776 1644.95L64.7467 1644.98L64.8827 1644.63C65.0194 1644.28 70.171 1630.31 73.1768 1610.52C76.182 1590.74 77.0504 1565.09 68.5721 1541.42C65.4949 1532.83 61.1275 1524.67 55.5425 1517.08L55.2966 1516.75L54.9227 1516.93L52.1999 1518.26L51.6559 1518.52L52.0162 1519.01C70.8204 1544.31 73.173 1575.35 70.7627 1600.22C68.353 1625.08 61.19 1643.69 61.0532 1644.04L60.8061 1644.67L61.4775 1644.72L64.3776 1644.95Z" fill="#3F3D56" stroke="#3F3D56"/>
<path d="M159.224 1229.24C160.54 1250.51 158.566 1271.87 153.371 1292.53L152.359 1296L149.436 1293.9C148.981 1293.57 103.744 1260.61 85.6113 1207.81C67.4812 1155 82.8497 1101 83.0048 1100.47L84.0168 1097L86.9394 1099.1C87.3946 1099.43 132.631 1132.39 150.764 1185.19C155.544 1199.42 158.389 1214.24 159.224 1229.24ZM149.405 1287.4C152.42 1274.56 160.842 1230.26 145.937 1186.87C131.039 1143.48 97.2261 1113.84 86.9702 1105.6C83.9571 1118.44 75.5352 1162.74 90.4385 1206.13C105.337 1249.52 139.149 1279.16 149.405 1287.4Z" fill="#3F3D56"/>
<path d="M61.4105 1456.24C62.7267 1477.51 60.7524 1498.87 55.5573 1519.53L54.5463 1523L51.6227 1520.9C51.1684 1520.57 5.93149 1487.61 -12.2026 1434.81C-30.3318 1382 -14.9642 1328 -14.8082 1327.46L-13.7972 1324L-10.8736 1326.1C-10.4193 1326.43 34.8177 1359.39 52.9518 1412.19C57.7314 1426.42 60.5765 1441.24 61.4105 1456.24ZM51.5929 1514.4C54.608 1501.55 63.0299 1457.26 48.1245 1413.87C33.2251 1370.48 -0.58675 1340.84 -10.8437 1332.6C-13.8558 1345.44 -22.2787 1389.74 -7.37537 1433.13C7.52401 1476.52 41.3369 1506.16 51.5929 1514.4Z" fill="#3F3D56"/>
<path d="M187.87 1672.8C148.281 1711.84 93.7548 1720.56 93.7548 1720.56C93.7548 1720.56 102.784 1662.18 142.373 1623.15C181.963 1584.11 237.118 1579.21 237.118 1579.21C237.118 1579.21 227.459 1633.77 187.87 1672.8Z" fill="#22A073"/>
<path d="M247.183 1459.51C214.936 1504.8 162.613 1523 162.613 1523C162.613 1523 162.574 1467.78 194.822 1422.49C227.068 1377.2 279.391 1359 279.391 1359C279.391 1359 279.431 1414.22 247.183 1459.51Z" fill="#22A073"/>
<path d="M130.815 1513.92C130.862 1512.46 135.404 1366.47 256.835 1280.46L259.787 1284.66C140.417 1369.21 133.84 1512.48 133.795 1513.92L130.815 1513.92Z" fill="#3F3D56"/>
<path d="M34.4902 1752C34.534 1750.54 39.4936 1604.3 160.754 1518.04L163.714 1522.23C44.513 1607.03 38.91 1750.48 38.8676 1751.92L34.4902 1752Z" fill="#3F3D56"/>
<path d="M14.1755 1797.73C14.1885 1797.65 14.2048 1797.55 14.2247 1797.43C14.2905 1797.04 14.3956 1796.48 14.5532 1795.75C14.8685 1794.31 15.3932 1792.24 16.2312 1789.69C17.9071 1784.58 20.8357 1777.52 25.8467 1769.62C35.8652 1753.82 54.2202 1734.64 87.5796 1720.95L88.2972 1720.65L87.7316 1720.12L86.0289 1718.52L85.7942 1718.3L85.4963 1718.42C17.8467 1746.19 13.2826 1796.02 13.1825 1797.62L13.1729 1797.69C13.1577 1797.79 13.1477 1797.87 13.142 1797.92L13.1406 1797.93L13.1408 1797.93C13.1381 1797.96 13.1367 1797.98 13.1365 1797.99L14.1319 1798.07L14.1755 1797.73Z" fill="#3F3D56" stroke="#3F3D56"/>
<path d="M-10.6148 1846.78L-10.4992 1846.95L-10.2922 1846.99L-7.67353 1847.49L-7.24833 1847.57L-7.10751 1847.16L-7.57909 1847C-7.10751 1847.16 -7.10748 1847.16 -7.10741 1847.16L-7.10701 1847.16L-7.1053 1847.15L-7.09826 1847.13L-7.06959 1847.05C-7.04397 1846.98 -7.0053 1846.87 -6.95336 1846.72C-6.84947 1846.43 -6.69251 1845.98 -6.48072 1845.4C-6.05713 1844.24 -5.41424 1842.51 -4.53809 1840.26C-2.78579 1835.75 -0.100445 1829.13 3.6296 1820.68C11.0897 1803.79 22.7285 1779.62 39.4393 1750.49L39.7911 1749.88L39.1001 1749.75L36.9447 1749.35L36.5972 1749.28L36.4203 1749.59C19.4028 1779.25 7.56092 1803.32 0.0081942 1820.03C-3.7681 1828.39 -6.47256 1834.91 -8.21578 1839.37C-9.08723 1841.6 -9.71931 1843.31 -10.1252 1844.49C-10.3279 1845.08 -10.4758 1845.53 -10.5692 1845.85C-10.6155 1846.01 -10.6509 1846.15 -10.6726 1846.25C-10.6831 1846.3 -10.6933 1846.36 -10.698 1846.41C-10.7003 1846.44 -10.7027 1846.48 -10.6993 1846.52L-10.6993 1846.52C-10.6971 1846.55 -10.6888 1846.66 -10.6148 1846.78Z" fill="#3F3D56" stroke="#3F3D56"/>
<path d="M79.3565 1721.85L79.9858 1718.3C80.0838 1717.75 90.2474 1662.48 129.958 1623.32C169.672 1584.17 224.909 1574.94 225.463 1574.86L229.018 1574.29L228.388 1577.85C228.29 1578.4 218.127 1633.67 178.416 1672.82C138.702 1711.98 83.4641 1721.2 82.9109 1721.29L79.3565 1721.85ZM222.552 1580.66C209.691 1583.45 166.182 1594.81 133.548 1626.99C100.882 1659.19 88.8075 1702.63 85.822 1715.48C98.6814 1712.71 142.192 1701.33 174.827 1669.16C207.492 1636.95 219.566 1593.52 222.552 1580.66Z" fill="#3F3D56"/>
<path d="M150.64 1528L150.637 1524.39C150.637 1523.83 150.97 1467.55 183.278 1421.91C215.59 1376.27 268.464 1357.37 268.995 1357.19L272.403 1356L272.405 1359.61C272.405 1360.17 272.072 1416.45 239.764 1462.09C207.453 1507.73 154.577 1526.63 154.047 1526.81L150.64 1528ZM267.141 1363.43C254.942 1368.45 214.013 1387.38 187.462 1424.89C160.885 1462.43 156.592 1507.38 155.9 1520.57C168.1 1515.56 209.028 1496.62 235.579 1459.11C262.156 1421.57 266.45 1376.62 267.141 1363.43Z" fill="#3F3D56"/>
<path d="M315.335 1123.92C296.52 1176.45 251.195 1208.23 251.195 1208.23C251.195 1208.23 236.372 1154.84 255.187 1102.31C274.001 1049.78 319.327 1018 319.327 1018C319.327 1018 334.149 1071.39 315.335 1123.92Z" fill="#22A073"/>
<path d="M218.294 1235.97C165.853 1310.54 157.727 1404.33 157.639 1405.44L161.434 1405.72C161.539 1404.45 172.637 1276.74 252.584 1202.1L249.996 1199.3C238.199 1210.39 227.573 1222.68 218.294 1235.97Z" fill="#3F3D56"/>
<path d="M289.22 1164.71C276.946 1182.18 262.053 1197.63 245.075 1210.51L242.123 1212.59L241.151 1209.1C241.004 1208.56 226.331 1154.31 245.204 1101.62C264.083 1048.92 309.836 1016.39 310.292 1016.07L313.25 1014L314.217 1017.48C314.364 1018.02 329.037 1072.27 310.164 1124.96C304.995 1139.1 297.948 1152.47 289.22 1164.71ZM245.195 1204C255.582 1195.86 289.847 1166.53 305.35 1123.23C320.858 1079.93 313.02 1035.47 310.174 1022.58C299.794 1030.73 265.526 1060.05 250.018 1103.35C234.51 1146.65 242.348 1191.11 245.195 1204Z" fill="#3F3D56"/>
</g>
<defs>
<clipPath id="clip0">
<rect width="3067" height="1940" fill="white"/>
</clipPath>
</defs>
</svg>
