<svg width="642" height="857" viewBox="0 0 642 857" fill="none" xmlns="http://www.w3.org/2000/svg">
<path d="M527.458 40C538.208 40 546.926 31.0462 546.926 20.0005C546.926 8.95489 538.208 0 527.458 0C516.718 0 508 8.95489 508 20.0005C508 31.0462 516.718 40 527.458 40Z" fill="#3F3D56"/>
<path d="M124.762 19H116.777V336H124.762V19Z" fill="#3F3D56"/>
<path d="M272.481 49H265.494V336H272.481V49Z" fill="#3F3D56"/>
<path d="M267.989 78C278.742 78 287.452 69.27 287.452 58.5005C287.452 47.731 278.742 39 267.989 39C257.237 39 248.526 47.731 248.526 58.5005C248.526 69.27 257.237 78 267.989 78Z" fill="#096031"/>
<path d="M121.269 39C132.011 39 140.731 30.2698 140.731 19.5C140.731 8.73025 132.011 0 121.269 0C110.516 0 101.806 8.73025 101.806 19.5C101.806 30.2698 110.516 39 121.269 39Z" fill="#3F3D56"/>
<path d="M531.986 19H523.003V336H531.986V19Z" fill="#3F3D56"/>
<path d="M530.988 49H524.001V336H530.988V49Z" fill="#3F3D56"/>
<path d="M527.494 372C538.237 372 546.957 363.046 546.957 352C546.957 340.954 538.237 332 527.494 332C516.742 332 508.031 340.954 508.031 352C508.031 363.046 516.742 372 527.494 372Z" fill="#3F3D56"/>
<path d="M419.2 655C430.218 655 439.162 646.045 439.162 635C439.162 623.954 430.218 615 419.2 615C408.172 615 399.238 623.954 399.238 635C399.238 646.045 408.172 655 419.2 655Z" fill="#3F3D56"/>
<path d="M19.4629 474C30.2055 474 38.9258 465.045 38.9258 454C38.9258 442.954 30.2055 434 19.4629 434C8.71045 434 0 442.954 0 454C0 465.045 8.71045 474 19.4629 474Z" fill="#3F3D56"/>
<path d="M422.195 618H415.311V273.918H268.488V267H422.195V618Z" fill="#3F3D56"/>
<path d="M166.683 780C177.711 780 186.645 771.049 186.645 760C186.645 748.951 177.711 740 166.683 740C155.654 740 146.721 748.951 146.721 760C146.721 771.049 155.654 780 166.683 780Z" fill="#096031"/>
<path d="M170.675 743H163.746V398.917H15.9697V392H170.675V743Z" fill="#3F3D56"/>
<path d="M622.313 625C633.066 625 641.776 616.269 641.776 605.499C641.776 594.73 633.066 586 622.313 586C611.571 586 602.851 594.73 602.851 605.499C602.851 616.269 611.571 625 622.313 625Z" fill="#096031"/>
<path d="M625.807 589H618.898V243.937H524.001V237H625.807V589Z" fill="#3F3D56"/>
<path d="M22.8598 434H15.9697V263H120.77V269.915H22.8598V434Z" fill="#3F3D56"/>
<path d="M269.985 857C280.738 857 289.448 848.041 289.448 836.995C289.448 825.949 280.738 817 269.985 817C259.233 817 250.522 825.949 250.522 836.995C250.522 848.041 259.233 857 269.985 857Z" fill="#3F3D56"/>
<path d="M273.479 817H266.589V652.914H168.679V646H273.479V817Z" fill="#3F3D56"/>
<path d="M520.508 711C531.26 711 539.971 702.046 539.971 691C539.971 679.954 531.26 671 520.508 671C509.755 671 501.045 679.954 501.045 691C501.045 702.046 509.755 711 520.508 711Z" fill="#3F3D56"/>
<path d="M523.98 671H517.015V500H622.813V506.914H523.98V671Z" fill="#3F3D56"/>
<path d="M268.483 372C279.509 372 288.45 363.046 288.45 352C288.45 340.954 279.509 332 268.483 332C257.468 332 248.526 340.954 248.526 352C248.526 363.046 257.468 372 268.483 372Z" fill="#3F3D56"/>
</svg>
