<svg width="1804" height="1071" viewBox="0 0 1804 1071" fill="none" xmlns="http://www.w3.org/2000/svg">
<path d="M1786 0V1071H1468.15C1463.66 1071 1459.16 1070.97 1454.67 1070.9L1451.45 1070.85C1447.81 1070.81 1444.16 1070.73 1440.51 1070.61C1429.35 1070.32 1418.21 1069.86 1407.09 1069.22C1221.18 1058.76 1040.15 1000.39 877.462 900.803C489.349 663.196 0 769.165 0 769.165V0H1786Z" fill="#6EDDB5"/>
<path d="M1095.59 145.931C1095.59 142.282 1096.7 138.715 1098.77 135.68C1100.85 132.646 1103.8 130.281 1107.24 128.885C1110.69 127.488 1114.49 127.123 1118.15 127.835C1121.81 128.547 1125.17 130.304 1127.81 132.884C1130.45 135.465 1132.25 138.752 1132.98 142.331C1133.71 145.911 1133.33 149.621 1131.91 152.992C1130.48 156.364 1128.06 159.245 1124.95 161.273C1121.85 163.3 1118.2 164.382 1114.47 164.382C1109.46 164.377 1104.67 162.431 1101.13 158.972C1097.59 155.513 1095.6 150.823 1095.59 145.931ZM1098.74 145.931C1098.74 148.972 1099.66 151.945 1101.39 154.473C1103.12 157.002 1105.57 158.973 1108.45 160.137C1111.32 161.3 1114.48 161.605 1117.54 161.012C1120.59 160.418 1123.39 158.954 1125.59 156.803C1127.79 154.653 1129.29 151.913 1129.89 148.931C1130.5 145.948 1130.19 142.857 1129 140.047C1127.81 137.237 1125.79 134.836 1123.21 133.147C1120.62 131.457 1117.58 130.555 1114.47 130.555C1110.3 130.56 1106.3 132.181 1103.35 135.064C1100.4 137.946 1098.74 141.855 1098.74 145.931V145.931Z" fill="#3F3D56"/>
<path d="M1312.71 830.298L1285.18 800.79L1314.7 773.267L1342.23 802.775L1312.71 830.298ZM1289.57 800.942L1312.86 825.911L1337.84 802.622L1314.54 777.654L1289.57 800.942Z" fill="#3F3D56"/>
<path d="M586.231 321.216L558.702 291.708L588.217 264.186L615.746 293.693L586.231 321.216ZM563.09 291.861L586.384 316.829L611.358 293.541L588.064 268.573L563.09 291.861Z" fill="#3F3D56"/>
<path d="M1366.56 254.563H1361.15V452.067H1366.56V254.563Z" fill="#3F3D56"/>
<path d="M1458.51 273.501H1454.45V452.067H1458.51V273.501Z" fill="#3F3D56"/>
<path d="M1363.95 474.388C1370.74 474.388 1376.24 468.882 1376.24 462.089C1376.24 455.296 1370.74 449.79 1363.95 449.79C1357.16 449.79 1351.65 455.296 1351.65 462.089C1351.65 468.882 1357.16 474.388 1363.95 474.388Z" fill="#096031"/>
<path d="M1455.93 291.336C1462.72 291.336 1468.22 285.829 1468.22 279.037C1468.22 272.244 1462.72 266.738 1455.93 266.738C1449.14 266.738 1443.63 272.244 1443.63 279.037C1443.63 285.829 1449.14 291.336 1455.93 291.336Z" fill="#096031"/>
<path d="M1456.15 474.388C1462.94 474.388 1468.44 468.882 1468.44 462.089C1468.44 455.296 1462.94 449.79 1456.15 449.79C1449.36 449.79 1443.85 455.296 1443.85 462.089C1443.85 468.882 1449.36 474.388 1456.15 474.388Z" fill="#3F3D56"/>
<path d="M1363.98 266.986C1370.77 266.986 1376.27 261.48 1376.27 254.687C1376.27 247.894 1370.77 242.388 1363.98 242.388C1357.19 242.388 1351.69 247.894 1351.69 254.687C1351.69 261.48 1357.19 266.986 1363.98 266.986Z" fill="#3F3D56"/>
<path d="M1618.19 273.75C1624.98 273.75 1630.48 268.243 1630.48 261.451C1630.48 254.658 1624.98 249.152 1618.19 249.152C1611.4 249.152 1605.89 254.658 1605.89 261.451C1605.89 268.243 1611.4 273.75 1618.19 273.75Z" fill="#3F3D56"/>
<path d="M1620.77 254.563H1615.36V452.067H1620.77V254.563Z" fill="#3F3D56"/>
<path d="M1620.17 273.501H1615.85V451.84H1620.17V273.501Z" fill="#3F3D56"/>
<path d="M1618.01 474.388C1624.8 474.388 1630.31 468.882 1630.31 462.089C1630.31 455.296 1624.8 449.79 1618.01 449.79C1611.22 449.79 1605.72 455.296 1605.72 462.089C1605.72 468.882 1611.22 474.388 1618.01 474.388Z" fill="#3F3D56"/>
<path d="M1550.4 650.676C1557.19 650.676 1562.69 645.17 1562.69 638.377C1562.69 631.584 1557.19 626.078 1550.4 626.078C1543.61 626.078 1538.11 631.584 1538.11 638.377C1538.11 645.17 1543.61 650.676 1550.4 650.676Z" fill="#3F3D56"/>
<path d="M1300.43 537.934C1307.22 537.934 1312.72 532.427 1312.72 525.634C1312.72 518.842 1307.22 513.335 1300.43 513.335C1293.64 513.335 1288.14 518.842 1288.14 525.634C1288.14 532.427 1293.64 537.934 1300.43 537.934Z" fill="#3F3D56"/>
<path d="M1552.56 628.126H1548.24V413.228H1456.15V408.908H1552.56V628.126Z" fill="#3F3D56"/>
<path d="M1392.63 728.57C1399.42 728.57 1404.92 723.064 1404.92 716.271C1404.92 709.479 1399.42 703.972 1392.63 703.972C1385.84 703.972 1380.34 709.479 1380.34 716.271C1380.34 723.064 1385.84 728.57 1392.63 728.57Z" fill="#096031"/>
<path d="M1394.79 706.022H1390.47V491.122H1298.38V486.802H1394.79V706.022Z" fill="#3F3D56"/>
<path d="M1677.43 632.227C1684.22 632.227 1689.73 626.72 1689.73 619.928C1689.73 613.135 1684.22 607.629 1677.43 607.629C1670.64 607.629 1665.14 613.135 1665.14 619.928C1665.14 626.72 1670.64 632.227 1677.43 632.227Z" fill="#096031"/>
<path d="M1679.59 609.678H1675.27V394.78H1615.96V390.46H1679.59V609.678Z" fill="#3F3D56"/>
<path d="M1302.59 513.334H1298.27V406.487H1363.95V410.807H1302.59V513.334Z" fill="#3F3D56"/>
<path d="M1457.17 776.742C1463.96 776.742 1469.47 771.236 1469.47 764.443C1469.47 757.65 1463.96 752.144 1457.17 752.144C1450.38 752.144 1444.88 757.65 1444.88 764.443C1444.88 771.236 1450.38 776.742 1457.17 776.742Z" fill="#3F3D56"/>
<path d="M1459.33 752.143H1455.01V649.617H1393.65V645.296H1459.33V752.143Z" fill="#3F3D56"/>
<path d="M1613.92 685.523C1620.71 685.523 1626.21 680.017 1626.21 673.224C1626.21 666.432 1620.71 660.925 1613.92 660.925C1607.13 660.925 1601.62 666.432 1601.62 673.224C1601.62 680.017 1607.13 685.523 1613.92 685.523Z" fill="#3F3D56"/>
<path d="M1616.08 660.925H1611.76V554.078H1677.43V558.399H1616.08V660.925Z" fill="#3F3D56"/>
<path opacity="0.1" d="M396.334 0.242004L295.737 68.8313L183.932 145.059L171.94 153.243L80.2737 215.737L0.222656 270.312V128.94L36.3241 104.326L43.9996 99.0885L80.2737 74.3652L88.373 68.8313L188.986 0.242004H396.334Z" fill="black"/>
<path opacity="0.1" d="M667.315 0.242004L508.782 108.333L356.591 212.089L344.599 220.273L333.502 227.834L0.222656 455.051V313.664L126.138 227.834L208.983 171.357L216.659 166.119L359.354 68.8313L459.967 0.242004H667.315Z" fill="black"/>
</svg>
