<svg width="1547" height="1066" viewBox="0 0 1547 1066" fill="none" xmlns="http://www.w3.org/2000/svg">
<path d="M1539.79 0L1547 896.59L1458.36 913.193L1368.17 920.768C1364.56 920.768 1279.54 922.02 1275.92 921.965H1270.77C1267.84 921.923 1264.98 922.062 1262.04 921.965C1253.07 921.714 1244.11 921.315 1235.17 920.768C1085.72 911.754 940.189 861.494 809.401 775.732C497.393 571.116 104 796.433 104 796.433V0H1539.79Z" fill="#6EDDB5"/>
<path d="M1121 141H1117V287H1121V141Z" fill="#3F3D56"/>
<path d="M1189 155H1186V287H1189V155Z" fill="#3F3D56"/>
<path d="M1119.07 303.5C1124.09 303.5 1128.16 299.43 1128.16 294.409C1128.16 289.387 1124.09 285.317 1119.07 285.317C1114.05 285.317 1109.97 289.387 1109.97 294.409C1109.97 299.43 1114.05 303.5 1119.07 303.5Z" fill="#096031"/>
<path d="M1187.09 168.184C1192.11 168.184 1196.18 164.113 1196.18 159.092C1196.18 154.071 1192.11 150 1187.09 150C1182.07 150 1178 154.071 1178 159.092C1178 164.113 1182.07 168.184 1187.09 168.184Z" fill="#096031"/>
<path d="M1187.26 303.5C1192.28 303.5 1196.35 299.43 1196.35 294.409C1196.35 289.387 1192.28 285.317 1187.26 285.317C1182.23 285.317 1178.16 289.387 1178.16 294.409C1178.16 299.43 1182.23 303.5 1187.26 303.5Z" fill="#3F3D56"/>
<path d="M1119.09 150.184C1124.11 150.184 1128.18 146.113 1128.18 141.092C1128.18 136.071 1124.11 132 1119.09 132C1114.07 132 1110 136.071 1110 141.092C1110 146.113 1114.07 150.184 1119.09 150.184Z" fill="#3F3D56"/>
<path d="M1307.09 155.184C1312.11 155.184 1316.18 151.113 1316.18 146.092C1316.18 141.071 1312.11 137 1307.09 137C1302.07 137 1298 141.071 1298 146.092C1298 151.113 1302.07 155.184 1307.09 155.184Z" fill="#3F3D56"/>
<path d="M1309 141H1305V287H1309V141Z" fill="#3F3D56"/>
<path d="M1308.56 155H1305.37V286.832H1308.56V155Z" fill="#3F3D56"/>
<path d="M1306.96 303.5C1311.99 303.5 1316.06 299.43 1316.06 294.409C1316.06 289.387 1311.99 285.317 1306.96 285.317C1301.94 285.317 1297.87 289.387 1297.87 294.409C1297.87 299.43 1301.94 303.5 1306.96 303.5Z" fill="#3F3D56"/>
<path d="M1256.96 433.817C1261.98 433.817 1266.05 429.746 1266.05 424.725C1266.05 419.703 1261.98 415.633 1256.96 415.633C1251.94 415.633 1247.87 419.703 1247.87 424.725C1247.87 429.746 1251.94 433.817 1256.96 433.817Z" fill="#3F3D56"/>
<path d="M1072.09 350.475C1077.11 350.475 1081.18 346.404 1081.18 341.383C1081.18 336.362 1077.11 332.291 1072.09 332.291C1067.07 332.291 1063 336.362 1063 341.383C1063 346.404 1067.07 350.475 1072.09 350.475Z" fill="#3F3D56"/>
<path d="M1258.56 417.147H1255.36V258.289H1187.26V255.096H1258.56V417.147Z" fill="#3F3D56"/>
<path d="M1140.28 491.398C1145.3 491.398 1149.37 487.327 1149.37 482.306C1149.37 477.285 1145.3 473.214 1140.28 473.214C1135.26 473.214 1131.19 477.285 1131.19 482.306C1131.19 487.327 1135.26 491.398 1140.28 491.398Z" fill="#096031"/>
<path d="M1141.88 474.73H1138.68V315.871H1070.58V312.677H1141.88V474.73Z" fill="#3F3D56"/>
<path d="M1350.91 420.179C1355.93 420.179 1360 416.108 1360 411.087C1360 406.065 1355.93 401.995 1350.91 401.995C1345.89 401.995 1341.82 406.065 1341.82 411.087C1341.82 416.108 1345.89 420.179 1350.91 420.179Z" fill="#096031"/>
<path d="M1352.5 403.51H1349.31V244.652H1305.45V241.458H1352.5V403.51Z" fill="#3F3D56"/>
<path d="M1073.69 332.29H1070.49V253.306H1119.07V256.5H1073.69V332.29Z" fill="#3F3D56"/>
<path d="M1188.01 527.008C1193.03 527.008 1197.1 522.937 1197.1 517.916C1197.1 512.895 1193.03 508.824 1188.01 508.824C1182.99 508.824 1178.92 512.895 1178.92 517.916C1178.92 522.937 1182.99 527.008 1188.01 527.008Z" fill="#3F3D56"/>
<path d="M1189.61 508.824H1186.42V433.033H1141.04V429.84H1189.61V508.824Z" fill="#3F3D56"/>
<path d="M1303.93 459.577C1308.95 459.577 1313.03 455.506 1313.03 450.485C1313.03 445.464 1308.95 441.393 1303.93 441.393C1298.91 441.393 1294.84 445.464 1294.84 450.485C1294.84 455.506 1298.91 459.577 1303.93 459.577Z" fill="#3F3D56"/>
<path d="M1305.53 441.393H1302.34V362.409H1350.91V365.603H1305.53V441.393Z" fill="#3F3D56"/>
<path d="M1539.79 0L1547 896.59L1458.36 913.193L1368.17 920.768C1364.56 920.768 1279.54 922.02 1275.92 921.965H1270.77C1267.84 921.923 1264.98 922.062 1262.04 921.965C1253.07 921.714 1244.11 921.315 1235.17 920.768C1085.72 911.754 940.189 861.494 809.401 775.732C497.393 571.116 104 796.433 104 796.433V0H1539.79Z" fill="#6EDDB5"/>
<path d="M1121 141H1117V287H1121V141Z" fill="#3F3D56"/>
<path d="M1189 155H1186V287H1189V155Z" fill="#3F3D56"/>
<path d="M1119.07 303.5C1124.09 303.5 1128.16 299.43 1128.16 294.409C1128.16 289.387 1124.09 285.317 1119.07 285.317C1114.05 285.317 1109.97 289.387 1109.97 294.409C1109.97 299.43 1114.05 303.5 1119.07 303.5Z" fill="#096031"/>
<path d="M1187.09 168.184C1192.11 168.184 1196.18 164.113 1196.18 159.092C1196.18 154.071 1192.11 150 1187.09 150C1182.07 150 1178 154.071 1178 159.092C1178 164.113 1182.07 168.184 1187.09 168.184Z" fill="#096031"/>
<path d="M1187.26 303.5C1192.28 303.5 1196.35 299.43 1196.35 294.409C1196.35 289.387 1192.28 285.317 1187.26 285.317C1182.23 285.317 1178.16 289.387 1178.16 294.409C1178.16 299.43 1182.23 303.5 1187.26 303.5Z" fill="#3F3D56"/>
<path d="M1119.09 150.184C1124.11 150.184 1128.18 146.113 1128.18 141.092C1128.18 136.071 1124.11 132 1119.09 132C1114.07 132 1110 136.071 1110 141.092C1110 146.113 1114.07 150.184 1119.09 150.184Z" fill="#3F3D56"/>
<path d="M1307.09 155.184C1312.11 155.184 1316.18 151.113 1316.18 146.092C1316.18 141.071 1312.11 137 1307.09 137C1302.07 137 1298 141.071 1298 146.092C1298 151.113 1302.07 155.184 1307.09 155.184Z" fill="#3F3D56"/>
<path d="M1309 141H1305V287H1309V141Z" fill="#3F3D56"/>
<path d="M1308.56 155H1305.37V286.832H1308.56V155Z" fill="#3F3D56"/>
<path d="M1306.96 303.5C1311.99 303.5 1316.06 299.43 1316.06 294.409C1316.06 289.387 1311.99 285.317 1306.96 285.317C1301.94 285.317 1297.87 289.387 1297.87 294.409C1297.87 299.43 1301.94 303.5 1306.96 303.5Z" fill="#3F3D56"/>
<path d="M1256.96 433.817C1261.98 433.817 1266.05 429.746 1266.05 424.725C1266.05 419.703 1261.98 415.633 1256.96 415.633C1251.94 415.633 1247.87 419.703 1247.87 424.725C1247.87 429.746 1251.94 433.817 1256.96 433.817Z" fill="#3F3D56"/>
<path d="M1072.09 350.475C1077.11 350.475 1081.18 346.404 1081.18 341.383C1081.18 336.362 1077.11 332.291 1072.09 332.291C1067.07 332.291 1063 336.362 1063 341.383C1063 346.404 1067.07 350.475 1072.09 350.475Z" fill="#3F3D56"/>
<path d="M1258.56 417.147H1255.36V258.289H1187.26V255.096H1258.56V417.147Z" fill="#3F3D56"/>
<path d="M1140.28 491.398C1145.3 491.398 1149.37 487.327 1149.37 482.306C1149.37 477.285 1145.3 473.214 1140.28 473.214C1135.26 473.214 1131.19 477.285 1131.19 482.306C1131.19 487.327 1135.26 491.398 1140.28 491.398Z" fill="#096031"/>
<path d="M1141.88 474.73H1138.68V315.871H1070.58V312.677H1141.88V474.73Z" fill="#3F3D56"/>
<path d="M1350.91 420.179C1355.93 420.179 1360 416.108 1360 411.087C1360 406.065 1355.93 401.995 1350.91 401.995C1345.89 401.995 1341.82 406.065 1341.82 411.087C1341.82 416.108 1345.89 420.179 1350.91 420.179Z" fill="#096031"/>
<path d="M1352.5 403.51H1349.31V244.652H1305.45V241.458H1352.5V403.51Z" fill="#3F3D56"/>
<path d="M1073.69 332.29H1070.49V253.306H1119.07V256.5H1073.69V332.29Z" fill="#3F3D56"/>
<path d="M1188.01 527.008C1193.03 527.008 1197.1 522.937 1197.1 517.916C1197.1 512.895 1193.03 508.824 1188.01 508.824C1182.99 508.824 1178.92 512.895 1178.92 517.916C1178.92 522.937 1182.99 527.008 1188.01 527.008Z" fill="#3F3D56"/>
<path d="M1189.61 508.824H1186.42V433.033H1141.04V429.84H1189.61V508.824Z" fill="#3F3D56"/>
<path d="M1303.93 459.577C1308.95 459.577 1313.03 455.506 1313.03 450.485C1313.03 445.464 1308.95 441.393 1303.93 441.393C1298.91 441.393 1294.84 445.464 1294.84 450.485C1294.84 455.506 1298.91 459.577 1303.93 459.577Z" fill="#3F3D56"/>
<path d="M1305.53 441.393H1302.34V362.409H1350.91V365.603H1305.53V441.393Z" fill="#3F3D56"/>
<path d="M1187.26 303.5C1192.28 303.5 1196.35 299.43 1196.35 294.409C1196.35 289.387 1192.28 285.317 1187.26 285.317C1182.23 285.317 1178.16 289.387 1178.16 294.409C1178.16 299.43 1182.23 303.5 1187.26 303.5Z" fill="#3F3D56"/>
<path opacity="0.1" d="M396.948 0L322.55 50.7029L239.864 107.052L230.995 113.102L163.202 159.299L104 199.643V95.137L130.699 76.9416L136.376 73.0697L163.202 54.7937L169.192 50.7029L243.602 0H396.948Z" fill="black"/>
<path opacity="0.1" d="M597.354 0L480.11 79.9031L367.556 156.603L358.687 162.652L350.48 168.241L104 336.206V231.689L197.122 168.241L258.391 126.492L264.067 122.62L369.599 50.7029L444.008 0H597.354Z" fill="black"/>
<path d="M926 199.828C926 197.093 926.817 194.42 928.348 192.146C929.878 189.872 932.054 188.099 934.599 187.053C937.145 186.006 939.945 185.732 942.648 186.266C945.35 186.799 947.832 188.116 949.78 190.05C951.728 191.984 953.055 194.448 953.592 197.13C954.13 199.813 953.854 202.593 952.8 205.12C951.745 207.647 949.96 209.806 947.669 211.326C945.378 212.845 942.685 213.656 939.93 213.656C936.237 213.652 932.696 212.194 930.085 209.601C927.473 207.009 926.004 203.494 926 199.828ZM928.322 199.828C928.322 202.107 929.002 204.335 930.278 206.23C931.554 208.125 933.367 209.602 935.488 210.474C937.609 211.346 939.943 211.575 942.195 211.13C944.447 210.685 946.515 209.588 948.138 207.976C949.762 206.365 950.867 204.311 951.315 202.076C951.763 199.841 951.533 197.524 950.655 195.418C949.776 193.313 948.288 191.513 946.379 190.247C944.47 188.981 942.226 188.305 939.93 188.305C936.852 188.308 933.902 189.523 931.726 191.684C929.549 193.844 928.325 196.773 928.322 199.828Z" fill="#3F3D56"/>
<path d="M1333.5 746.178L1313 724.355L1334.98 704L1355.49 725.823L1333.5 746.178ZM1316.27 724.468L1333.62 742.933L1352.22 725.71L1334.87 707.244L1316.27 724.468Z" fill="#3F3D56"/>
<path d="M473.505 201.178L453 179.355L474.984 159L495.488 180.823L473.505 201.178ZM456.268 179.468L473.619 197.933L492.22 180.71L474.87 162.244L456.268 179.468Z" fill="#3F3D56"/>
<path d="M271.261 618.349C251.67 634.944 226.227 637.109 226.227 637.109C226.227 637.109 232.549 612.37 252.14 595.776C271.731 579.181 297.173 577.015 297.173 577.015C297.173 577.015 290.852 601.755 271.261 618.349Z" fill="#22A073"/>
<path d="M163.462 837.72C125.35 855.303 100.566 890.84 100.278 891.259L101.731 892.259C102.065 891.771 135.824 843.393 184.966 832.156L184.574 830.437C177.303 832.128 170.228 834.568 163.462 837.72Z" fill="#3F3D56"/>
<path d="M204.918 824.175C195.993 828.294 186.484 831.004 176.73 832.208L175.071 832.349L175.483 830.735C175.547 830.484 182.126 805.437 201.777 788.791C221.432 772.146 247.219 769.777 247.476 769.755L249.134 769.614L248.723 771.227C248.658 771.478 242.08 796.525 222.428 813.171C217.113 817.611 211.223 821.312 204.918 824.175ZM178.272 829.637C184.3 828.797 204.751 825.045 220.897 811.365C237.046 797.688 244.113 778.131 245.933 772.325C239.907 773.166 219.457 776.918 203.308 790.597C187.16 804.275 180.092 823.831 178.272 829.637Z" fill="#3F3D56"/>
<path d="M250.841 628.175C241.917 632.294 232.408 635.004 222.653 636.208L220.995 636.349L221.406 634.735C221.471 634.484 228.049 609.437 247.701 592.791C267.356 576.146 293.142 573.777 293.399 573.755L295.057 573.614L294.646 575.227C294.581 575.478 288.003 600.525 268.351 617.171C263.037 621.611 257.146 625.312 250.841 628.175ZM224.195 633.637C230.223 632.797 250.674 629.045 266.821 615.365C282.969 601.688 290.036 582.131 291.856 576.325C285.83 577.166 265.38 580.918 249.231 594.597C233.083 608.275 226.015 627.831 224.195 633.637Z" fill="#3F3D56"/>
<path d="M204.918 824.175C195.993 828.294 186.484 831.004 176.73 832.208L175.071 832.349L175.483 830.735C175.547 830.484 182.126 805.437 201.777 788.791C221.432 772.146 247.219 769.777 247.476 769.755L249.134 769.614L248.723 771.227C248.658 771.478 242.08 796.525 222.428 813.171C217.113 817.611 211.223 821.312 204.918 824.175ZM178.272 829.637C184.3 828.797 204.751 825.045 220.897 811.365C237.046 797.688 244.113 778.131 245.933 772.325C239.907 773.166 219.457 776.918 203.308 790.597C187.16 804.275 180.092 823.831 178.272 829.637Z" fill="#3F3D56"/>
<path d="M250.841 628.175C241.917 632.294 232.408 635.004 222.653 636.208L220.995 636.349L221.406 634.735C221.471 634.484 228.049 609.437 247.701 592.791C267.356 576.146 293.142 573.777 293.399 573.755L295.057 573.614L294.646 575.227C294.581 575.478 288.003 600.525 268.351 617.171C263.037 621.611 257.146 625.312 250.841 628.175ZM224.195 633.637C230.223 632.797 250.674 629.045 266.821 615.365C282.969 601.688 290.036 582.131 291.856 576.325C285.83 577.166 265.38 580.918 249.231 594.597C233.083 608.275 226.015 627.831 224.195 633.637Z" fill="#3F3D56"/>
<path d="M80.9655 840.427C89.3451 864.696 82.1564 889.197 82.1564 889.197C82.1564 889.197 61.3817 874.351 53.0021 850.083C44.6225 825.814 51.8112 801.313 51.8112 801.313C51.8112 801.313 72.5859 816.159 80.9655 840.427Z" fill="#22A073"/>
<path d="M180.351 588.427C188.73 612.696 181.542 637.197 181.542 637.197C181.542 637.197 160.767 622.351 152.387 598.083C144.008 573.814 151.196 549.313 151.196 549.313C151.196 549.313 171.971 564.159 180.351 588.427Z" fill="#22A073"/>
<path d="M137.965 712.427C146.345 736.696 139.156 761.197 139.156 761.197C139.156 761.197 118.382 746.351 110.002 722.083C101.623 697.814 108.811 673.313 108.811 673.313C108.811 673.313 129.586 688.159 137.965 712.427Z" fill="#22A073"/>
<path d="M80.5677 899.638C84.0558 955.864 57.8461 1007.77 57.5342 1008.38L55.4282 1007.3C55.7914 1006.59 91.4608 935.906 73.4508 870.687L75.732 870.057C78.3632 879.723 79.9838 889.636 80.5677 899.638Z" fill="#3F3D56"/>
<path d="M182.568 662.122C186.056 718.348 159.846 770.257 159.534 770.864L157.428 769.784C157.791 769.078 193.461 698.39 175.451 633.171L177.732 632.541C180.363 642.207 181.984 652.121 182.568 662.122Z" fill="#3F3D56"/>
<path d="M137.568 771.638C141.056 827.864 114.846 879.773 114.534 880.38L112.428 879.3C112.791 878.594 148.461 807.906 130.451 742.687L132.732 742.057C135.363 751.723 136.984 761.636 137.568 771.638Z" fill="#3F3D56"/>
<path d="M82.7355 863.019C83.3456 872.829 82.4304 882.674 80.0225 892.203L79.5536 893.8L78.1986 892.833C77.9877 892.682 57.0193 877.485 48.6137 853.141C40.2102 828.795 47.3337 803.898 47.4057 803.651L47.8746 802.054L49.2296 803.021C49.4405 803.172 70.4089 818.369 78.8146 842.713C81.0299 849.274 82.3488 856.105 82.7355 863.019ZM78.1846 889.835C79.5822 883.912 83.486 863.489 76.577 843.487C69.6708 823.483 53.9977 809.817 49.2437 806.019C47.8471 811.941 43.9432 832.363 50.8512 852.368C57.7574 872.371 73.4305 886.037 78.1846 889.835Z" fill="#3F3D56"/>
<path d="M182.121 611.019C182.731 620.829 181.816 630.674 179.408 640.203L178.939 641.8L177.584 640.833C177.373 640.682 156.404 625.485 147.999 601.141C139.595 576.795 146.719 551.898 146.791 551.651L147.26 550.054L148.615 551.021C148.826 551.172 169.794 566.369 178.2 590.713C180.415 597.274 181.734 604.105 182.121 611.019ZM177.57 637.835C178.967 631.912 182.871 611.489 175.962 591.487C169.056 571.483 153.383 557.817 148.629 554.019C147.232 559.941 143.328 580.363 150.236 600.368C157.143 620.371 172.816 634.037 177.57 637.835Z" fill="#3F3D56"/>
<path d="M139.736 735.019C140.346 744.829 139.43 754.674 137.022 764.203L136.554 765.8L135.199 764.833C134.988 764.682 114.019 749.485 105.614 725.141C97.2102 700.795 104.334 675.898 104.406 675.651L104.875 674.054L106.23 675.021C106.44 675.172 127.409 690.369 135.815 714.713C138.03 721.274 139.349 728.105 139.736 735.019ZM135.185 761.835C136.582 755.912 140.486 735.489 133.577 715.487C126.671 695.483 110.998 681.817 106.244 678.019C104.847 683.941 100.943 704.363 107.851 724.368C114.757 744.371 130.431 758.037 135.185 761.835Z" fill="#3F3D56"/>
<path d="M117.566 951.08C102.708 972.018 78.6 980.432 78.6 980.432C78.6 980.432 78.5817 954.898 93.4398 933.96C108.298 913.021 132.406 904.607 132.406 904.607C132.406 904.607 132.424 930.141 117.566 951.08Z" fill="#22A073"/>
<path d="M219.566 713.564C204.708 734.502 180.6 742.917 180.6 742.917C180.6 742.917 180.582 717.382 195.44 696.444C210.298 675.505 234.406 667.091 234.406 667.091C234.406 667.091 234.424 692.625 219.566 713.564Z" fill="#22A073"/>
<path d="M45.0181 1065.29C44.9904 1064.62 42.8363 997.334 95.928 953.681L97.4303 955.509C45.24 998.422 47.3547 1064.53 47.3824 1065.19L45.0181 1065.29Z" fill="#3F3D56"/>
<path d="M71.0181 981.608C70.9904 980.934 68.8363 913.653 121.928 870L123.43 871.828C71.24 914.741 73.3547 980.847 73.3824 981.511L71.0181 981.608Z" fill="#3F3D56"/>
<path d="M173.018 744.092C172.99 743.418 170.836 676.137 223.928 632.484L225.43 634.312C173.24 677.225 175.355 743.331 175.382 743.995L173.018 744.092Z" fill="#3F3D56"/>
<path d="M128.018 853.608C127.99 852.934 125.836 785.653 178.928 742L180.43 743.828C128.24 786.741 130.355 852.847 130.382 853.511L128.018 853.608Z" fill="#3F3D56"/>
<path d="M71.5529 981.158L71.5518 979.493C71.5518 979.234 71.7054 953.337 86.6092 932.334C101.514 911.33 125.905 902.634 126.15 902.548L127.722 902L127.723 903.665C127.723 903.924 127.569 929.82 112.666 950.823C97.7607 971.828 73.3695 980.523 73.1245 980.609L71.5529 981.158ZM125.295 905.421C119.667 907.731 100.787 916.444 88.5391 933.703C76.2793 950.981 74.2986 971.665 73.9797 977.737C79.6074 975.427 98.4876 966.714 110.736 949.454C122.996 932.176 124.976 911.492 125.295 905.421Z" fill="#3F3D56"/>
<path d="M173.553 743.642L173.552 741.977C173.552 741.718 173.705 715.822 188.609 694.818C203.514 673.814 227.905 665.118 228.15 665.032L229.722 664.484L229.723 666.149C229.723 666.408 229.569 692.304 214.666 713.308C199.761 734.312 175.37 743.008 175.125 743.093L173.553 743.642ZM227.295 667.905C221.667 670.215 202.787 678.929 190.539 696.187C178.279 713.465 176.299 734.149 175.98 740.222C181.607 737.912 200.488 729.198 212.736 711.938C224.996 694.66 226.976 673.976 227.295 667.905Z" fill="#3F3D56"/>
<path d="M225.337 814.349C205.746 830.944 180.304 833.109 180.304 833.109C180.304 833.109 186.626 808.37 206.217 791.776C225.808 775.181 251.25 773.015 251.25 773.015C251.25 773.015 244.929 797.755 225.337 814.349Z" fill="#22A073"/>
</svg>
