<svg width="3262" height="2313" viewBox="0 0 3262 2313" fill="none" xmlns="http://www.w3.org/2000/svg">
<path d="M3245.89 0.348389L3261.55 1946.44L3069.18 1982.48L2873.46 1998.93C2865.62 1998.93 2681.1 2001.64 2673.26 2001.52H2662.08C2655.71 2001.43 2649.5 2001.73 2643.14 2001.52C2623.67 2000.98 2604.23 2000.11 2584.82 1998.93C2260.48 1979.36 1944.65 1870.27 1660.82 1684.12C983.699 1239.99 129.958 1729.05 129.958 1729.05V0.348389H3245.89Z" fill="#6EDDB5"/>
<path d="M2337.05 306.396H2328.37V623.297H2337.05V306.396Z" fill="#3F3D56"/>
<path d="M2484.62 336.784H2478.11V623.297H2484.62V336.784Z" fill="#3F3D56"/>
<path d="M2332.85 659.112C2343.75 659.112 2352.58 650.277 2352.58 639.378C2352.58 628.479 2343.75 619.644 2332.85 619.644C2321.95 619.644 2313.12 628.479 2313.12 639.378C2313.12 650.277 2321.95 659.112 2332.85 659.112Z" fill="#096031"/>
<path d="M2480.48 365.4C2491.38 365.4 2500.21 356.565 2500.21 345.666C2500.21 334.767 2491.38 325.931 2480.48 325.931C2469.58 325.931 2460.75 334.767 2460.75 345.666C2460.75 356.565 2469.58 365.4 2480.48 365.4Z" fill="#096031"/>
<path d="M2480.83 659.112C2491.73 659.112 2500.57 650.277 2500.57 639.378C2500.57 628.479 2491.73 619.644 2480.83 619.644C2469.94 619.644 2461.1 628.479 2461.1 639.378C2461.1 650.277 2469.94 659.112 2480.83 659.112Z" fill="#3F3D56"/>
<path d="M2332.91 326.33C2343.8 326.33 2352.64 317.495 2352.64 306.596C2352.64 295.697 2343.8 286.862 2332.91 286.862C2322.01 286.862 2313.18 295.697 2313.18 306.596C2313.18 317.495 2322.01 326.33 2332.91 326.33Z" fill="#3F3D56"/>
<path d="M2740.9 337.183C2751.8 337.183 2760.64 328.348 2760.64 317.449C2760.64 306.55 2751.8 297.714 2740.9 297.714C2730.01 297.714 2721.17 306.55 2721.17 317.449C2721.17 328.348 2730.01 337.183 2740.9 337.183Z" fill="#3F3D56"/>
<path d="M2745.04 306.396H2736.36V623.297H2745.04V306.396Z" fill="#3F3D56"/>
<path d="M2744.09 336.784H2737.16V622.933H2744.09V336.784Z" fill="#3F3D56"/>
<path d="M2740.63 659.112C2751.52 659.112 2760.36 650.277 2760.36 639.378C2760.36 628.479 2751.52 619.644 2740.63 619.644C2729.73 619.644 2720.9 628.479 2720.9 639.378C2720.9 650.277 2729.73 659.112 2740.63 659.112Z" fill="#3F3D56"/>
<path d="M2632.11 941.971C2643 941.971 2651.84 933.135 2651.84 922.236C2651.84 911.337 2643 902.502 2632.11 902.502C2621.21 902.502 2612.38 911.337 2612.38 922.236C2612.38 933.135 2621.21 941.971 2632.11 941.971Z" fill="#3F3D56"/>
<path d="M2230.91 761.073C2241.8 761.073 2250.64 752.237 2250.64 741.338C2250.64 730.439 2241.8 721.604 2230.91 721.604C2220.01 721.604 2211.18 730.439 2211.18 741.338C2211.18 752.237 2220.01 761.073 2230.91 761.073Z" fill="#3F3D56"/>
<path d="M2635.57 905.789H2628.64V560.98H2480.83V554.047H2635.57V905.789Z" fill="#3F3D56"/>
<path d="M2378.89 1066.95C2389.79 1066.95 2398.62 1058.12 2398.62 1047.22C2398.62 1036.32 2389.79 1027.49 2378.89 1027.49C2367.99 1027.49 2359.16 1036.32 2359.16 1047.22C2359.16 1058.12 2367.99 1066.95 2378.89 1066.95Z" fill="#096031"/>
<path d="M2382.36 1030.77H2375.43V685.962H2227.62V679.03H2382.36V1030.77Z" fill="#3F3D56"/>
<path d="M2835.99 912.369C2846.89 912.369 2855.72 903.533 2855.72 892.634C2855.72 881.735 2846.89 872.9 2835.99 872.9C2825.1 872.9 2816.26 881.735 2816.26 892.634C2816.26 903.533 2825.1 912.369 2835.99 912.369Z" fill="#096031"/>
<path d="M2839.46 876.188H2832.53V531.379H2737.34V524.447H2839.46V876.188Z" fill="#3F3D56"/>
<path d="M2234.37 721.602H2227.44V550.162H2332.85V557.095H2234.37V721.602Z" fill="#3F3D56"/>
<path d="M2482.48 1144.25C2493.38 1144.25 2502.21 1135.41 2502.21 1124.51C2502.21 1113.61 2493.38 1104.78 2482.48 1104.78C2471.58 1104.78 2462.75 1113.61 2462.75 1124.51C2462.75 1135.41 2471.58 1144.25 2482.48 1144.25Z" fill="#3F3D56"/>
<path d="M2485.94 1104.78H2479.01V940.271H2380.53V933.339H2485.94V1104.78Z" fill="#3F3D56"/>
<path d="M2734.05 997.884C2744.95 997.884 2753.78 989.049 2753.78 978.15C2753.78 967.251 2744.95 958.416 2734.05 958.416C2723.15 958.416 2714.32 967.251 2714.32 978.15C2714.32 989.049 2723.15 997.884 2734.05 997.884Z" fill="#3F3D56"/>
<path d="M2737.52 958.416H2730.58V786.977H2835.99V793.909H2737.52V958.416Z" fill="#3F3D56"/>
<path d="M3245.89 0.348389L3261.55 1946.44L3069.18 1982.48L2873.46 1998.93C2865.62 1998.93 2681.1 2001.64 2673.26 2001.52H2662.08C2655.71 2001.43 2649.5 2001.73 2643.14 2001.52C2623.67 2000.98 2604.23 2000.11 2584.82 1998.93C2260.48 1979.36 1944.65 1870.27 1660.82 1684.12C983.699 1239.99 129.958 1729.05 129.958 1729.05V0.348389H3245.89Z" fill="#6EDDB5"/>
<path d="M2337.05 306.396H2328.37V623.297H2337.05V306.396Z" fill="#3F3D56"/>
<path d="M2484.62 336.784H2478.11V623.297H2484.62V336.784Z" fill="#3F3D56"/>
<path d="M2332.85 659.112C2343.75 659.112 2352.58 650.277 2352.58 639.378C2352.58 628.479 2343.75 619.644 2332.85 619.644C2321.95 619.644 2313.12 628.479 2313.12 639.378C2313.12 650.277 2321.95 659.112 2332.85 659.112Z" fill="#096031"/>
<path d="M2480.48 365.4C2491.38 365.4 2500.21 356.565 2500.21 345.666C2500.21 334.767 2491.38 325.931 2480.48 325.931C2469.58 325.931 2460.75 334.767 2460.75 345.666C2460.75 356.565 2469.58 365.4 2480.48 365.4Z" fill="#096031"/>
<path d="M2480.83 659.112C2491.73 659.112 2500.57 650.277 2500.57 639.378C2500.57 628.479 2491.73 619.644 2480.83 619.644C2469.94 619.644 2461.1 628.479 2461.1 639.378C2461.1 650.277 2469.94 659.112 2480.83 659.112Z" fill="#3F3D56"/>
<path d="M2332.91 326.33C2343.8 326.33 2352.64 317.495 2352.64 306.596C2352.64 295.697 2343.8 286.862 2332.91 286.862C2322.01 286.862 2313.18 295.697 2313.18 306.596C2313.18 317.495 2322.01 326.33 2332.91 326.33Z" fill="#3F3D56"/>
<path d="M2740.9 337.183C2751.8 337.183 2760.64 328.348 2760.64 317.449C2760.64 306.55 2751.8 297.714 2740.9 297.714C2730.01 297.714 2721.17 306.55 2721.17 317.449C2721.17 328.348 2730.01 337.183 2740.9 337.183Z" fill="#3F3D56"/>
<path d="M2745.04 306.396H2736.36V623.297H2745.04V306.396Z" fill="#3F3D56"/>
<path d="M2744.09 336.784H2737.16V622.933H2744.09V336.784Z" fill="#3F3D56"/>
<path d="M2740.63 659.112C2751.52 659.112 2760.36 650.277 2760.36 639.378C2760.36 628.479 2751.52 619.644 2740.63 619.644C2729.73 619.644 2720.9 628.479 2720.9 639.378C2720.9 650.277 2729.73 659.112 2740.63 659.112Z" fill="#3F3D56"/>
<path d="M2632.11 941.971C2643 941.971 2651.84 933.135 2651.84 922.236C2651.84 911.337 2643 902.502 2632.11 902.502C2621.21 902.502 2612.38 911.337 2612.38 922.236C2612.38 933.135 2621.21 941.971 2632.11 941.971Z" fill="#3F3D56"/>
<path d="M2230.91 761.073C2241.8 761.073 2250.64 752.237 2250.64 741.338C2250.64 730.439 2241.8 721.604 2230.91 721.604C2220.01 721.604 2211.18 730.439 2211.18 741.338C2211.18 752.237 2220.01 761.073 2230.91 761.073Z" fill="#3F3D56"/>
<path d="M2635.57 905.789H2628.64V560.98H2480.83V554.047H2635.57V905.789Z" fill="#3F3D56"/>
<path d="M2378.89 1066.95C2389.79 1066.95 2398.62 1058.12 2398.62 1047.22C2398.62 1036.32 2389.79 1027.49 2378.89 1027.49C2367.99 1027.49 2359.16 1036.32 2359.16 1047.22C2359.16 1058.12 2367.99 1066.95 2378.89 1066.95Z" fill="#096031"/>
<path d="M2382.36 1030.77H2375.43V685.962H2227.62V679.03H2382.36V1030.77Z" fill="#3F3D56"/>
<path d="M2835.99 912.369C2846.89 912.369 2855.72 903.533 2855.72 892.634C2855.72 881.735 2846.89 872.9 2835.99 872.9C2825.1 872.9 2816.26 881.735 2816.26 892.634C2816.26 903.533 2825.1 912.369 2835.99 912.369Z" fill="#096031"/>
<path d="M2839.46 876.188H2832.53V531.379H2737.34V524.447H2839.46V876.188Z" fill="#3F3D56"/>
<path d="M2234.37 721.602H2227.44V550.162H2332.85V557.095H2234.37V721.602Z" fill="#3F3D56"/>
<path d="M2482.48 1144.25C2493.38 1144.25 2502.21 1135.41 2502.21 1124.51C2502.21 1113.61 2493.38 1104.78 2482.48 1104.78C2471.58 1104.78 2462.75 1113.61 2462.75 1124.51C2462.75 1135.41 2471.58 1144.25 2482.48 1144.25Z" fill="#3F3D56"/>
<path d="M2485.94 1104.78H2479.01V940.271H2380.53V933.339H2485.94V1104.78Z" fill="#3F3D56"/>
<path d="M2734.05 997.884C2744.95 997.884 2753.78 989.049 2753.78 978.15C2753.78 967.251 2744.95 958.416 2734.05 958.416C2723.15 958.416 2714.32 967.251 2714.32 978.15C2714.32 989.049 2723.15 997.884 2734.05 997.884Z" fill="#3F3D56"/>
<path d="M2737.52 958.416H2730.58V786.977H2835.99V793.909H2737.52V958.416Z" fill="#3F3D56"/>
<path d="M2480.83 659.112C2491.73 659.112 2500.57 650.277 2500.57 639.378C2500.57 628.479 2491.73 619.644 2480.83 619.644C2469.94 619.644 2461.1 628.479 2461.1 639.378C2461.1 650.277 2469.94 659.112 2480.83 659.112Z" fill="#3F3D56"/>
<path opacity="0.1" d="M765.713 0.348389L604.255 110.402L424.81 232.711L405.563 245.842L258.44 346.116L129.958 433.683V206.848L187.901 167.354L200.22 158.95L258.44 119.281L271.439 110.402L432.922 0.348389H765.713Z" fill="black"/>
<path opacity="0.1" d="M1200.63 0.348389L946.191 173.782L701.926 340.263L682.679 353.394L664.868 365.525L129.958 730.102V503.242L332.052 365.525L465.017 274.906L477.336 266.502L706.36 110.402L867.843 0.348389H1200.63Z" fill="black"/>
<path d="M1913.86 434.086C1913.86 428.15 1915.63 422.347 1918.95 417.411C1922.28 412.475 1927 408.628 1932.52 406.356C1938.05 404.084 1944.12 403.49 1949.99 404.648C1955.85 405.806 1961.24 408.665 1965.47 412.863C1969.69 417.06 1972.57 422.408 1973.74 428.23C1974.91 434.053 1974.31 440.088 1972.02 445.572C1969.73 451.056 1965.86 455.744 1960.89 459.042C1955.91 462.34 1950.07 464.1 1944.09 464.1C1936.08 464.092 1928.39 460.927 1922.72 455.3C1917.06 449.673 1913.87 442.044 1913.86 434.086ZM1918.9 434.086C1918.9 439.033 1920.38 443.869 1923.14 447.982C1925.91 452.095 1929.85 455.301 1934.45 457.194C1939.05 459.087 1944.12 459.583 1949.01 458.617C1953.89 457.652 1958.38 455.27 1961.9 451.772C1965.43 448.274 1967.83 443.817 1968.8 438.966C1969.77 434.114 1969.27 429.085 1967.37 424.514C1965.46 419.944 1962.23 416.038 1958.09 413.289C1953.94 410.541 1949.07 409.074 1944.09 409.074C1937.41 409.081 1931.01 411.719 1926.28 416.408C1921.56 421.097 1918.91 427.455 1918.9 434.086Z" fill="#3F3D56"/>
<path d="M2798.23 1619.97L2753.73 1572.6L2801.43 1528.42L2845.93 1575.79L2798.23 1619.97ZM2760.82 1572.84L2798.47 1612.92L2838.84 1575.54L2801.19 1535.46L2760.82 1572.84Z" fill="#3F3D56"/>
<path d="M931.856 437.015L887.357 389.648L935.066 345.466L979.565 392.834L931.856 437.015ZM894.45 389.893L932.103 429.973L972.472 392.589L934.819 352.509L894.45 389.893Z" fill="#3F3D56"/>
<path d="M492.947 1342.51C450.43 1378.53 395.216 1383.23 395.216 1383.23C395.216 1383.23 408.934 1329.53 451.451 1293.51C493.968 1257.49 549.182 1252.79 549.182 1252.79C549.182 1252.79 535.463 1306.49 492.947 1342.51Z" fill="#22A073"/>
<path d="M259.003 1818.66C176.292 1856.83 122.505 1933.97 121.88 1934.88L125.033 1937.04C125.759 1935.99 199.022 1830.98 305.671 1806.59L304.819 1802.86C289.041 1806.53 273.687 1811.82 259.003 1818.66V1818.66Z" fill="#3F3D56"/>
<path d="M348.97 1789.26C329.602 1798.21 308.966 1804.09 287.796 1806.7L284.197 1807.01L285.09 1803.5C285.23 1802.96 299.507 1748.59 342.155 1712.46C384.81 1676.33 440.772 1671.19 441.329 1671.14L444.928 1670.84L444.035 1674.34C443.895 1674.88 429.619 1729.25 386.971 1765.38C375.437 1775.02 362.654 1783.05 348.97 1789.26V1789.26ZM291.144 1801.12C304.225 1799.3 348.609 1791.15 383.649 1761.46C418.694 1731.77 434.032 1689.32 437.982 1676.72C424.904 1678.55 380.522 1686.69 345.477 1716.38C310.432 1746.07 295.094 1788.52 291.144 1801.12V1801.12Z" fill="#3F3D56"/>
<path d="M448.632 1363.84C429.265 1372.78 408.628 1378.66 387.458 1381.27L383.859 1381.58L384.752 1378.08C384.892 1377.53 399.169 1323.16 441.817 1287.03C484.472 1250.9 540.434 1245.76 540.991 1245.71L544.59 1245.41L543.697 1248.91C543.557 1249.46 529.281 1303.82 486.633 1339.95C475.099 1349.59 462.316 1357.62 448.632 1363.84V1363.84ZM390.806 1375.69C403.887 1373.87 448.271 1365.72 483.311 1336.03C518.356 1306.34 533.694 1263.9 537.644 1251.29C524.566 1253.12 480.185 1261.26 445.139 1290.95C410.094 1320.64 394.756 1363.09 390.806 1375.69V1375.69Z" fill="#3F3D56"/>
<path d="M348.97 1789.26C329.602 1798.21 308.966 1804.09 287.796 1806.7L284.197 1807.01L285.09 1803.5C285.23 1802.96 299.507 1748.59 342.155 1712.46C384.81 1676.33 440.772 1671.19 441.329 1671.14L444.928 1670.84L444.035 1674.34C443.895 1674.88 429.619 1729.25 386.971 1765.38C375.437 1775.02 362.654 1783.05 348.97 1789.26V1789.26ZM291.144 1801.12C304.225 1799.3 348.609 1791.15 383.649 1761.46C418.694 1731.77 434.032 1689.32 437.982 1676.72C424.904 1678.55 380.522 1686.69 345.477 1716.38C310.432 1746.07 295.094 1788.52 291.144 1801.12V1801.12Z" fill="#3F3D56"/>
<path d="M448.632 1363.84C429.265 1372.78 408.628 1378.66 387.458 1381.27L383.859 1381.58L384.752 1378.08C384.892 1377.53 399.169 1323.16 441.817 1287.03C484.472 1250.9 540.434 1245.76 540.991 1245.71L544.59 1245.41L543.697 1248.91C543.557 1249.46 529.281 1303.82 486.633 1339.95C475.099 1349.59 462.316 1357.62 448.632 1363.84V1363.84ZM390.806 1375.69C403.887 1373.87 448.271 1365.72 483.311 1336.03C518.356 1306.34 533.694 1263.9 537.644 1251.29C524.566 1253.12 480.185 1261.26 445.139 1290.95C410.094 1320.64 394.756 1363.09 390.806 1375.69V1375.69Z" fill="#3F3D56"/>
<path d="M79.9692 1824.54C98.1545 1877.22 82.5538 1930.4 82.5538 1930.4C82.5538 1930.4 37.4686 1898.18 19.2832 1845.5C1.09781 1792.82 16.6986 1739.64 16.6986 1739.64C16.6986 1739.64 61.7837 1771.86 79.9692 1824.54Z" fill="#22A073"/>
<path d="M295.654 1277.56C313.84 1330.24 298.239 1383.42 298.239 1383.42C298.239 1383.42 253.154 1351.2 234.968 1298.52C216.783 1245.84 232.384 1192.66 232.384 1192.66C232.384 1192.66 277.469 1224.88 295.654 1277.56Z" fill="#22A073"/>
<path d="M203.67 1546.71C221.856 1599.39 206.255 1652.57 206.255 1652.57C206.255 1652.57 161.17 1620.34 142.984 1567.67C124.799 1514.99 140.4 1461.81 140.4 1461.81C140.4 1461.81 185.485 1494.03 203.67 1546.71Z" fill="#22A073"/>
<path d="M79.1057 1953.06C86.6757 2075.1 29.7955 2187.77 29.1184 2189.09L24.5481 2186.75C25.3363 2185.22 102.746 2031.78 63.6607 1890.22L68.6114 1888.85C74.3216 1909.83 77.8385 1931.35 79.1057 1953.06V1953.06Z" fill="#3F3D56"/>
<path d="M300.466 1437.52C308.036 1559.56 251.155 1672.23 250.478 1673.55L245.908 1671.21C246.696 1669.67 324.106 1516.24 285.021 1374.68L289.971 1373.31C295.681 1394.29 299.198 1415.81 300.466 1437.52V1437.52Z" fill="#3F3D56"/>
<path d="M202.807 1675.23C210.377 1797.27 153.497 1909.94 152.82 1911.26L148.249 1908.92C149.038 1907.38 226.447 1753.95 187.362 1612.39L192.313 1611.02C198.023 1632 201.54 1653.52 202.807 1675.23V1675.23Z" fill="#3F3D56"/>
<path d="M83.8101 1873.58C85.1342 1894.87 83.148 1916.24 77.9223 1936.92L76.9047 1940.39L73.9641 1938.29C73.5065 1937.96 28.0009 1904.98 9.75903 1852.14C-8.4782 1799.29 6.98117 1745.25 7.13754 1744.72L8.15506 1741.25L11.0957 1743.35C11.5533 1743.68 57.059 1776.66 75.3009 1829.5C80.1086 1843.74 82.9709 1858.57 83.8101 1873.58V1873.58ZM73.9337 1931.78C76.9668 1918.93 85.4388 1874.6 70.4449 1831.18C55.4571 1787.76 21.4434 1758.1 11.1262 1749.86C8.09539 1762.71 -0.376761 1807.04 14.615 1850.46C29.6027 1893.88 63.6165 1923.54 73.9337 1931.78Z" fill="#3F3D56"/>
<path d="M299.496 1326.6C300.82 1347.89 298.834 1369.26 293.608 1389.94L292.59 1393.41L289.65 1391.31C289.192 1390.98 243.686 1358 225.445 1305.16C207.207 1252.31 222.667 1198.27 222.823 1197.74L223.841 1194.27L226.781 1196.37C227.239 1196.7 272.745 1229.68 290.986 1282.52C295.794 1296.76 298.656 1311.59 299.496 1326.6V1326.6ZM289.619 1384.8C292.652 1371.95 301.124 1327.62 286.13 1284.2C271.143 1240.78 237.129 1211.12 226.812 1202.88C223.781 1215.73 215.309 1260.06 230.301 1303.48C245.288 1346.9 279.302 1376.56 289.619 1384.8Z" fill="#3F3D56"/>
<path d="M207.511 1595.75C208.835 1617.04 206.849 1638.41 201.623 1659.09L200.606 1662.56L197.665 1660.46C197.208 1660.13 151.702 1627.15 133.46 1574.31C115.223 1521.46 130.682 1467.42 130.839 1466.88L131.856 1463.42L134.797 1465.52C135.254 1465.85 180.76 1498.83 199.002 1551.67C203.81 1565.91 206.672 1580.74 207.511 1595.75V1595.75ZM197.635 1653.95C200.668 1641.1 209.14 1596.77 194.146 1553.35C179.158 1509.93 145.145 1480.27 134.827 1472.03C131.797 1484.88 123.324 1529.21 138.316 1572.63C153.304 1616.05 187.318 1645.71 197.635 1653.95Z" fill="#3F3D56"/>
<path d="M159.399 2064.72C127.154 2110.17 74.8354 2128.43 74.8354 2128.43C74.8354 2128.43 74.7958 2073.01 107.041 2027.56C139.286 1982.11 191.604 1963.85 191.604 1963.85C191.604 1963.85 191.644 2019.27 159.399 2064.72Z" fill="#22A073"/>
<path d="M380.759 1549.18C348.514 1594.63 296.195 1612.89 296.195 1612.89C296.195 1612.89 296.156 1557.47 328.401 1512.02C360.645 1466.57 412.964 1448.31 412.964 1448.31C412.964 1448.31 413.004 1503.73 380.759 1549.18Z" fill="#22A073"/>
<path d="M1.95629 2312.62C1.89611 2311.15 -2.77856 2165.12 112.441 2070.36L115.701 2074.33C2.43778 2167.48 7.02712 2310.96 7.08732 2312.4L1.95629 2312.62Z" fill="#3F3D56"/>
<path d="M58.3811 2130.98C58.3209 2129.52 53.6462 1983.48 168.866 1888.73L172.126 1892.7C58.8626 1985.84 63.4519 2129.33 63.5121 2130.77L58.3811 2130.98Z" fill="#3F3D56"/>
<path d="M279.741 1615.44C279.681 1613.98 275.007 1467.94 390.226 1373.19L393.486 1377.16C280.223 1470.3 284.812 1613.79 284.872 1615.23L279.741 1615.44Z" fill="#3F3D56"/>
<path d="M182.082 1853.15C182.022 1851.69 177.347 1705.65 292.567 1610.9L295.827 1614.87C182.564 1708.01 187.153 1851.5 187.213 1852.94L182.082 1853.15Z" fill="#3F3D56"/>
<path d="M59.5421 2130L59.5396 2126.39C59.5396 2125.83 59.8731 2069.62 92.2171 2024.03C124.564 1978.44 177.497 1959.56 178.029 1959.38L181.44 1958.19L181.442 1961.8C181.442 1962.36 181.109 2018.57 148.765 2064.16C116.418 2109.75 63.4844 2128.63 62.9527 2128.81L59.5421 2130ZM176.173 1965.61C163.96 1970.63 122.986 1989.54 96.4053 2027C69.7993 2064.5 65.5008 2109.4 64.8086 2122.58C77.022 2117.57 117.996 2098.65 144.577 2061.19C171.183 2023.69 175.481 1978.79 176.173 1965.61Z" fill="#3F3D56"/>
<path d="M280.902 1614.46L280.899 1610.85C280.899 1610.29 281.233 1554.08 313.577 1508.49C345.924 1462.9 398.857 1444.02 399.389 1443.84L402.8 1442.65L402.802 1446.26C402.802 1446.82 402.469 1503.03 370.125 1548.62C337.778 1594.21 284.844 1613.09 284.313 1613.27L280.902 1614.46ZM397.533 1450.07C385.32 1455.09 344.346 1474 317.765 1511.46C291.159 1548.96 286.861 1593.86 286.168 1607.04C298.382 1602.03 339.355 1583.11 365.936 1545.65C392.542 1508.15 396.841 1463.25 397.533 1450.07Z" fill="#3F3D56"/>
<path d="M393.285 1767.94C350.768 1803.96 295.554 1808.66 295.554 1808.66C295.554 1808.66 309.272 1754.96 351.789 1718.94C394.305 1682.92 449.52 1678.22 449.52 1678.22C449.52 1678.22 435.801 1731.92 393.285 1767.94Z" fill="#22A073"/>
</svg>
