<svg width="2327" height="1487" viewBox="0 0 2327 1487" fill="none" xmlns="http://www.w3.org/2000/svg">
<path d="M2315.05 0.122437L2326.68 1445.64L2183.81 1472.41L2038.45 1484.63C2032.63 1484.63 1895.59 1486.65 1889.77 1486.56H1881.46C1876.74 1486.49 1872.13 1486.71 1867.4 1486.56C1852.94 1486.15 1838.5 1485.51 1824.09 1484.63C1583.2 1470.09 1348.65 1389.06 1137.85 1250.79C634.963 920.901 0.905762 1284.17 0.905762 1284.17V0.122437H2315.05Z" fill="#6EDDB5"/>
<path d="M1640.07 227.449H1633.62V462.837H1640.07V227.449Z" fill="#3F3D56"/>
<path d="M1749.67 250.02H1744.83V462.837H1749.67V250.02Z" fill="#3F3D56"/>
<path d="M1636.95 489.439C1645.05 489.439 1651.61 482.877 1651.61 474.781C1651.61 466.686 1645.05 460.123 1636.95 460.123C1628.86 460.123 1622.3 466.686 1622.3 474.781C1622.3 482.877 1628.86 489.439 1636.95 489.439Z" fill="#096031"/>
<path d="M1746.59 271.276C1754.69 271.276 1761.25 264.713 1761.25 256.617C1761.25 248.522 1754.69 241.959 1746.59 241.959C1738.5 241.959 1731.94 248.522 1731.94 256.617C1731.94 264.713 1738.5 271.276 1746.59 271.276Z" fill="#096031"/>
<path d="M1746.86 489.439C1754.95 489.439 1761.51 482.877 1761.51 474.781C1761.51 466.686 1754.95 460.123 1746.86 460.123C1738.76 460.123 1732.2 466.686 1732.2 474.781C1732.2 482.877 1738.76 489.439 1746.86 489.439Z" fill="#3F3D56"/>
<path d="M1636.99 242.255C1645.09 242.255 1651.65 235.693 1651.65 227.597C1651.65 219.502 1645.09 212.939 1636.99 212.939C1628.9 212.939 1622.34 219.502 1622.34 227.597C1622.34 235.693 1628.9 242.255 1636.99 242.255Z" fill="#3F3D56"/>
<path d="M1940.01 250.317C1948.1 250.317 1954.66 243.754 1954.66 235.658C1954.66 227.563 1948.1 221 1940.01 221C1931.91 221 1925.35 227.563 1925.35 235.658C1925.35 243.754 1931.91 250.317 1940.01 250.317Z" fill="#3F3D56"/>
<path d="M1943.08 227.449H1936.64V462.837H1943.08V227.449Z" fill="#3F3D56"/>
<path d="M1942.38 250.02H1937.23V462.566H1942.38V250.02Z" fill="#3F3D56"/>
<path d="M1939.8 489.439C1947.89 489.439 1954.46 482.877 1954.46 474.781C1954.46 466.686 1947.89 460.123 1939.8 460.123C1931.71 460.123 1925.15 466.686 1925.15 474.781C1925.15 482.877 1931.71 489.439 1939.8 489.439Z" fill="#3F3D56"/>
<path d="M1859.2 699.541C1867.3 699.541 1873.86 692.978 1873.86 684.883C1873.86 676.787 1867.3 670.225 1859.2 670.225C1851.11 670.225 1844.55 676.787 1844.55 684.883C1844.55 692.978 1851.11 699.541 1859.2 699.541Z" fill="#3F3D56"/>
<path d="M1561.24 565.173C1569.33 565.173 1575.9 558.611 1575.9 550.515C1575.9 542.42 1569.33 535.857 1561.24 535.857C1553.15 535.857 1546.59 542.42 1546.59 550.515C1546.59 558.611 1553.15 565.173 1561.24 565.173Z" fill="#3F3D56"/>
<path d="M1861.78 672.666H1856.63V416.548H1746.86V411.399H1861.78V672.666Z" fill="#3F3D56"/>
<path d="M1671.15 792.376C1679.24 792.376 1685.8 785.814 1685.8 777.718C1685.8 769.623 1679.24 763.06 1671.15 763.06C1663.05 763.06 1656.49 769.623 1656.49 777.718C1656.49 785.814 1663.05 792.376 1671.15 792.376Z" fill="#096031"/>
<path d="M1673.72 765.503H1668.57V509.383H1558.8V504.234H1673.72V765.503Z" fill="#3F3D56"/>
<path d="M2010.63 677.553C2018.72 677.553 2025.28 670.99 2025.28 662.895C2025.28 654.799 2018.72 648.237 2010.63 648.237C2002.54 648.237 1995.97 654.799 1995.97 662.895C1995.97 670.99 2002.54 677.553 2010.63 677.553Z" fill="#096031"/>
<path d="M2013.2 650.679H2008.05V394.562H1937.36V389.413H2013.2V650.679Z" fill="#3F3D56"/>
<path d="M1563.82 535.855H1558.67V408.513H1636.95V413.663H1563.82V535.855Z" fill="#3F3D56"/>
<path d="M1748.08 849.788C1756.17 849.788 1762.73 843.225 1762.73 835.13C1762.73 827.034 1756.17 820.471 1748.08 820.471C1739.99 820.471 1733.43 827.034 1733.43 835.13C1733.43 843.225 1739.99 849.788 1748.08 849.788Z" fill="#3F3D56"/>
<path d="M1750.65 820.471H1745.5V698.278H1672.37V693.129H1750.65V820.471Z" fill="#3F3D56"/>
<path d="M1934.92 741.072C1943.01 741.072 1949.57 734.51 1949.57 726.414C1949.57 718.319 1943.01 711.756 1934.92 711.756C1926.82 711.756 1920.26 718.319 1920.26 726.414C1920.26 734.51 1926.82 741.072 1934.92 741.072Z" fill="#3F3D56"/>
<path d="M1937.49 711.756H1932.34V584.414H2010.63V589.564H1937.49V711.756Z" fill="#3F3D56"/>
<path d="M2315.05 0.122437L2326.68 1445.64L2183.81 1472.41L2038.45 1484.63C2032.63 1484.63 1895.59 1486.65 1889.77 1486.56H1881.46C1876.74 1486.49 1872.13 1486.71 1867.4 1486.56C1852.94 1486.15 1838.5 1485.51 1824.09 1484.63C1583.2 1470.09 1348.65 1389.06 1137.85 1250.79C634.963 920.901 0.905762 1284.17 0.905762 1284.17V0.122437H2315.05Z" fill="#6EDDB5"/>
<path d="M1640.07 227.449H1633.62V462.837H1640.07V227.449Z" fill="#3F3D56"/>
<path d="M1749.67 250.02H1744.83V462.837H1749.67V250.02Z" fill="#3F3D56"/>
<path d="M1636.95 489.439C1645.05 489.439 1651.61 482.877 1651.61 474.781C1651.61 466.686 1645.05 460.123 1636.95 460.123C1628.86 460.123 1622.3 466.686 1622.3 474.781C1622.3 482.877 1628.86 489.439 1636.95 489.439Z" fill="#096031"/>
<path d="M1746.59 271.276C1754.69 271.276 1761.25 264.713 1761.25 256.617C1761.25 248.522 1754.69 241.959 1746.59 241.959C1738.5 241.959 1731.94 248.522 1731.94 256.617C1731.94 264.713 1738.5 271.276 1746.59 271.276Z" fill="#096031"/>
<path d="M1746.86 489.439C1754.95 489.439 1761.51 482.877 1761.51 474.781C1761.51 466.686 1754.95 460.123 1746.86 460.123C1738.76 460.123 1732.2 466.686 1732.2 474.781C1732.2 482.877 1738.76 489.439 1746.86 489.439Z" fill="#3F3D56"/>
<path d="M1636.99 242.255C1645.09 242.255 1651.65 235.693 1651.65 227.597C1651.65 219.502 1645.09 212.939 1636.99 212.939C1628.9 212.939 1622.34 219.502 1622.34 227.597C1622.34 235.693 1628.9 242.255 1636.99 242.255Z" fill="#3F3D56"/>
<path d="M1940.01 250.317C1948.1 250.317 1954.66 243.754 1954.66 235.658C1954.66 227.563 1948.1 221 1940.01 221C1931.91 221 1925.35 227.563 1925.35 235.658C1925.35 243.754 1931.91 250.317 1940.01 250.317Z" fill="#3F3D56"/>
<path d="M1943.08 227.449H1936.64V462.837H1943.08V227.449Z" fill="#3F3D56"/>
<path d="M1942.38 250.02H1937.23V462.566H1942.38V250.02Z" fill="#3F3D56"/>
<path d="M1939.8 489.439C1947.89 489.439 1954.46 482.877 1954.46 474.781C1954.46 466.686 1947.89 460.123 1939.8 460.123C1931.71 460.123 1925.15 466.686 1925.15 474.781C1925.15 482.877 1931.71 489.439 1939.8 489.439Z" fill="#3F3D56"/>
<path d="M1859.2 699.541C1867.3 699.541 1873.86 692.978 1873.86 684.883C1873.86 676.787 1867.3 670.225 1859.2 670.225C1851.11 670.225 1844.55 676.787 1844.55 684.883C1844.55 692.978 1851.11 699.541 1859.2 699.541Z" fill="#3F3D56"/>
<path d="M1561.24 565.173C1569.33 565.173 1575.9 558.611 1575.9 550.515C1575.9 542.42 1569.33 535.857 1561.24 535.857C1553.15 535.857 1546.59 542.42 1546.59 550.515C1546.59 558.611 1553.15 565.173 1561.24 565.173Z" fill="#3F3D56"/>
<path d="M1861.78 672.666H1856.63V416.548H1746.86V411.399H1861.78V672.666Z" fill="#3F3D56"/>
<path d="M1671.15 792.376C1679.24 792.376 1685.8 785.814 1685.8 777.718C1685.8 769.623 1679.24 763.06 1671.15 763.06C1663.05 763.06 1656.49 769.623 1656.49 777.718C1656.49 785.814 1663.05 792.376 1671.15 792.376Z" fill="#096031"/>
<path d="M1673.72 765.503H1668.57V509.383H1558.8V504.234H1673.72V765.503Z" fill="#3F3D56"/>
<path d="M2010.63 677.553C2018.72 677.553 2025.28 670.99 2025.28 662.895C2025.28 654.799 2018.72 648.237 2010.63 648.237C2002.54 648.237 1995.97 654.799 1995.97 662.895C1995.97 670.99 2002.54 677.553 2010.63 677.553Z" fill="#096031"/>
<path d="M2013.2 650.679H2008.05V394.562H1937.36V389.413H2013.2V650.679Z" fill="#3F3D56"/>
<path d="M1563.82 535.855H1558.67V408.513H1636.95V413.663H1563.82V535.855Z" fill="#3F3D56"/>
<path d="M1748.08 849.788C1756.17 849.788 1762.73 843.225 1762.73 835.13C1762.73 827.034 1756.17 820.471 1748.08 820.471C1739.99 820.471 1733.43 827.034 1733.43 835.13C1733.43 843.225 1739.99 849.788 1748.08 849.788Z" fill="#3F3D56"/>
<path d="M1750.65 820.471H1745.5V698.278H1672.37V693.129H1750.65V820.471Z" fill="#3F3D56"/>
<path d="M1934.92 741.072C1943.01 741.072 1949.57 734.51 1949.57 726.414C1949.57 718.319 1943.01 711.756 1934.92 711.756C1926.82 711.756 1920.26 718.319 1920.26 726.414C1920.26 734.51 1926.82 741.072 1934.92 741.072Z" fill="#3F3D56"/>
<path d="M1937.49 711.756H1932.34V584.414H2010.63V589.564H1937.49V711.756Z" fill="#3F3D56"/>
<path d="M1746.86 489.439C1754.95 489.439 1761.51 482.877 1761.51 474.781C1761.51 466.686 1754.95 460.123 1746.86 460.123C1738.76 460.123 1732.2 466.686 1732.2 474.781C1732.2 482.877 1738.76 489.439 1746.86 489.439Z" fill="#3F3D56"/>
<path opacity="0.1" d="M473.069 0.122437L353.157 81.8679L219.886 172.717L205.592 182.471L96.3263 256.952L0.905762 321.995V153.507L43.9385 124.171L53.0877 117.929L96.3263 88.4632L105.981 81.8679L225.911 0.122437H473.069Z" fill="black"/>
<path opacity="0.1" d="M796.077 0.122437L607.107 128.946L425.695 252.604L411.401 262.358L398.173 271.369L0.905762 542.169V373.662L150.997 271.369L249.747 204.059L258.897 197.816L428.988 81.8679L548.919 0.122437H796.077Z" fill="black"/>
<path d="M1325.78 322.294C1325.78 317.885 1327.09 313.574 1329.56 309.908C1332.03 306.242 1335.53 303.384 1339.64 301.697C1343.74 300.01 1348.25 299.568 1352.61 300.428C1356.96 301.289 1360.96 303.412 1364.1 306.53C1367.24 309.648 1369.38 313.62 1370.25 317.945C1371.12 322.269 1370.67 326.752 1368.97 330.826C1367.27 334.9 1364.39 338.381 1360.7 340.831C1357.01 343.281 1352.67 344.588 1348.23 344.588C1342.28 344.582 1336.57 342.231 1332.36 338.051C1328.15 333.872 1325.78 328.205 1325.78 322.294ZM1329.52 322.294C1329.52 325.969 1330.62 329.561 1332.67 332.616C1334.73 335.671 1337.65 338.052 1341.07 339.459C1344.49 340.865 1348.25 341.233 1351.88 340.516C1355.51 339.799 1358.84 338.029 1361.46 335.431C1364.07 332.833 1365.86 329.523 1366.58 325.919C1367.3 322.315 1366.93 318.579 1365.51 315.185C1364.1 311.79 1361.7 308.888 1358.62 306.847C1355.55 304.805 1351.93 303.716 1348.23 303.716C1343.27 303.721 1338.51 305.681 1335 309.163C1331.5 312.646 1329.52 317.369 1329.52 322.294Z" fill="#3F3D56"/>
<path d="M1982.58 1203.14L1949.53 1167.96L1984.96 1135.14L2018.01 1170.33L1982.58 1203.14ZM1954.8 1168.14L1982.76 1197.91L2012.74 1170.14L1984.78 1140.37L1954.8 1168.14Z" fill="#3F3D56"/>
<path d="M596.461 324.47L563.412 289.286L598.844 256.469L631.893 291.653L596.461 324.47ZM568.679 289.468L596.644 319.239L626.625 291.471L598.661 261.7L568.679 289.468Z" fill="#3F3D56"/>
</svg>
