<svg width="538" height="338" viewBox="0 0 538 338" fill="none" xmlns="http://www.w3.org/2000/svg">
<g clip-path="url(#clip0)">
<path d="M513.032 338H58.3099C54.2662 338 50.388 336.394 47.5286 333.536C44.6692 330.678 43.0629 326.801 43.0629 322.759C207.899 303.609 369.638 303.609 528.279 322.759C528.279 326.801 526.672 330.678 523.813 333.536C520.954 336.394 517.076 338 513.032 338Z" fill="#CCCCCC"/>
<path d="M528.279 323.655L43.0629 322.759L99.2977 228.172L99.5668 227.724V19.2669C99.5665 16.7367 100.065 14.2312 101.033 11.8935C102.002 9.55586 103.422 7.43181 105.212 5.64268C107.001 3.85354 109.126 2.43436 111.465 1.46618C113.803 0.498002 116.31 -0.000211363 118.841 6.7266e-08H449.81C452.341 -0.000211363 454.848 0.498002 457.186 1.46618C459.525 2.43436 461.65 3.85354 463.439 5.64268C465.229 7.43181 466.649 9.55586 467.617 11.8935C468.586 14.2312 469.084 16.7367 469.084 19.2669V229.159L528.279 323.655Z" fill="#E6E6E6"/>
<path d="M118.401 13.4483C116.737 13.4501 115.141 14.1119 113.964 15.2885C112.787 16.465 112.125 18.0602 112.123 19.7241V209.793C112.125 211.457 112.787 213.052 113.964 214.229C115.141 215.405 116.737 216.067 118.401 216.069H452.94C454.605 216.067 456.2 215.405 457.377 214.229C458.554 213.052 459.216 211.457 459.218 209.793V19.7241C459.216 18.0603 458.554 16.4651 457.377 15.2886C456.2 14.112 454.605 13.4502 452.94 13.4483H118.401Z" fill="white"/>
<path d="M120.6 241.172C120.086 241.173 119.582 241.321 119.149 241.598C118.716 241.876 118.371 242.271 118.155 242.738L100.828 280.393C100.639 280.803 100.557 281.253 100.588 281.703C100.619 282.153 100.763 282.588 101.006 282.968C101.25 283.348 101.585 283.661 101.981 283.877C102.377 284.093 102.821 284.207 103.272 284.207H467.664C468.123 284.207 468.574 284.09 468.974 283.866C469.375 283.643 469.712 283.321 469.953 282.931C470.194 282.541 470.331 282.096 470.352 281.638C470.372 281.18 470.275 280.724 470.07 280.314L451.235 242.659C451.013 242.211 450.67 241.835 450.245 241.572C449.82 241.309 449.329 241.171 448.829 241.172L120.6 241.172Z" fill="#CCCCCC"/>
<path d="M284.325 10.3104C286.554 10.3104 288.361 8.50406 288.361 6.27588C288.361 4.04769 286.554 2.24139 284.325 2.24139C282.096 2.24139 280.289 4.04769 280.289 6.27588C280.289 8.50406 282.096 10.3104 284.325 10.3104Z" fill="white"/>
<path d="M248.509 291.379C247.917 291.38 247.342 291.575 246.873 291.935C246.403 292.295 246.065 292.799 245.911 293.369L241.564 309.507C241.457 309.906 241.443 310.324 241.523 310.729C241.603 311.134 241.775 311.515 242.026 311.843C242.278 312.171 242.601 312.436 242.971 312.619C243.342 312.802 243.749 312.897 244.162 312.897H326.822C327.251 312.897 327.674 312.794 328.055 312.598C328.437 312.401 328.765 312.116 329.014 311.767C329.263 311.418 329.424 311.014 329.485 310.589C329.546 310.165 329.505 309.732 329.364 309.327L323.776 293.189C323.593 292.661 323.25 292.203 322.794 291.878C322.338 291.554 321.793 291.38 321.234 291.379H248.509Z" fill="#CCCCCC"/>
<path d="M469.084 224.586V228.173H99.2977L99.5757 227.724V224.586H469.084Z" fill="#CCCCCC"/>
<path d="M423.441 232.801C423.297 232.801 423.157 232.849 423.043 232.937C422.929 233.024 422.846 233.147 422.809 233.286L421.75 237.216C421.724 237.313 421.721 237.415 421.74 237.513C421.76 237.612 421.802 237.705 421.863 237.784C421.924 237.864 422.003 237.929 422.093 237.973C422.183 238.018 422.282 238.041 422.383 238.041H442.512C442.616 238.041 442.719 238.016 442.812 237.968C442.905 237.92 442.985 237.851 443.045 237.766C443.106 237.681 443.145 237.583 443.16 237.479C443.175 237.376 443.165 237.27 443.131 237.172L441.77 233.242C441.725 233.113 441.642 233.002 441.531 232.923C441.42 232.844 441.287 232.801 441.151 232.801H423.441Z" fill="#CCCCCC"/>
<path d="M394.05 232.801C393.906 232.801 393.766 232.849 393.652 232.937C393.538 233.024 393.455 233.147 393.418 233.286L392.359 237.216C392.333 237.313 392.33 237.415 392.349 237.513C392.369 237.612 392.411 237.705 392.472 237.784C392.533 237.864 392.612 237.929 392.702 237.973C392.792 238.018 392.891 238.041 392.992 238.041H413.121C413.225 238.041 413.328 238.016 413.421 237.968C413.514 237.92 413.594 237.851 413.655 237.766C413.715 237.681 413.755 237.583 413.769 237.479C413.784 237.376 413.774 237.27 413.74 237.172L412.379 233.242C412.334 233.113 412.251 233.002 412.14 232.923C412.029 232.844 411.896 232.801 411.76 232.801H394.05Z" fill="#CCCCCC"/>
<path d="M308.899 257.771H310.476L307.321 46.978H305.744L305.807 51.1834H270.448L270.511 46.978H268.933L265.778 257.771H267.355L267.56 244.104H308.694L308.899 257.771ZM306.625 105.853H269.629L270.015 80.0952H306.239L306.625 105.853ZM306.648 107.43L307.034 133.188H269.22L269.606 107.43H306.648ZM307.058 134.765L307.443 160.523H268.811L269.197 134.765H307.058ZM307.467 162.1L307.852 187.857H268.402L268.787 162.1H307.467ZM307.876 189.434L308.261 215.192H267.993L268.378 189.434H307.876ZM305.83 52.7604L306.216 78.5182H270.039L270.424 52.7604H305.83ZM267.584 242.527L267.969 216.769H308.285L308.671 242.527H267.584Z" fill="#3F3D56"/>
<path d="M280.312 119.582C294.519 119.582 306.036 108.069 306.036 93.8673C306.036 79.6653 294.519 68.1523 280.312 68.1523C266.105 68.1523 254.587 79.6653 254.587 93.8673C254.587 108.069 266.105 119.582 280.312 119.582Z" fill="#2F2E41"/>
<path d="M295.443 111.638L287.753 113.03L290.247 126.803L297.938 125.411L295.443 111.638Z" fill="#2F2E41"/>
<path d="M280.063 114.422L272.373 115.813L274.867 129.586L282.557 128.195L280.063 114.422Z" fill="#2F2E41"/>
<path d="M278.95 132.485C281.694 130.161 283.213 127.443 282.341 126.414C281.469 125.385 278.538 126.435 275.793 128.759C273.048 131.082 271.53 133.8 272.402 134.829C273.273 135.858 276.205 134.808 278.95 132.485Z" fill="#2F2E41"/>
<path d="M294.009 129.759C296.754 127.436 298.273 124.718 297.401 123.689C296.529 122.66 293.598 123.71 290.853 126.033C288.108 128.357 286.59 131.075 287.461 132.104C288.333 133.133 291.265 132.083 294.009 129.759Z" fill="#2F2E41"/>
<path d="M300.605 65.8921C300.992 56.3721 292.784 48.3085 282.272 47.8817C271.76 47.4549 262.925 54.8264 262.538 64.3464C262.151 73.8665 269.458 76.0295 279.97 76.4564C290.482 76.8832 300.218 75.4122 300.605 65.8921Z" fill="#6EDDB5"/>
<path d="M269.096 92.055C269.594 89.8822 264.385 86.8346 257.461 85.2481C250.537 83.6616 244.52 84.1369 244.022 86.3098C243.524 88.4826 248.733 91.5302 255.657 93.1167C262.581 94.7032 268.598 94.2279 269.096 92.055Z" fill="#2F2E41"/>
<path d="M319.592 100.449C320.091 98.2765 314.881 95.2289 307.957 93.6424C301.033 92.0559 295.016 92.5312 294.518 94.7041C294.02 96.877 299.229 99.9246 306.153 101.511C313.077 103.098 319.094 102.622 319.592 100.449Z" fill="#2F2E41"/>
<path d="M193.184 181.205C195.784 174.405 196.16 168.232 194.025 167.416C191.89 166.6 188.051 171.451 185.451 178.25C182.851 185.05 182.475 191.223 184.61 192.039C186.745 192.855 190.584 188.004 193.184 181.205Z" fill="#2F2E41"/>
<path d="M190.973 203.856C193.306 189.486 183.543 175.945 169.167 173.613C154.791 171.281 141.246 181.041 138.913 195.411C136.58 209.782 146.343 223.322 160.719 225.654C175.095 227.986 188.64 218.227 190.973 203.856Z" fill="#2F2E41"/>
<path d="M160.938 220.322H152.926V234.67H160.938V220.322Z" fill="#2F2E41"/>
<path d="M176.96 220.322H168.949V234.67H176.96V220.322Z" fill="#2F2E41"/>
<path d="M159.602 237.339C163.289 237.339 166.278 236.219 166.278 234.837C166.278 233.455 163.289 232.334 159.602 232.334C155.915 232.334 152.926 233.455 152.926 234.837C152.926 236.219 155.915 237.339 159.602 237.339Z" fill="#2F2E41"/>
<path d="M175.625 237.006C179.312 237.006 182.301 235.885 182.301 234.503C182.301 233.121 179.312 232.001 175.625 232.001C171.938 232.001 168.949 233.121 168.949 234.503C168.949 235.885 171.938 237.006 175.625 237.006Z" fill="#2F2E41"/>
<path d="M139.363 175.119C137.234 165.587 144.04 155.954 154.566 153.605C165.091 151.256 175.35 157.079 177.479 166.611C179.609 176.144 172.633 179.659 162.107 182.009C151.582 184.358 141.492 184.651 139.363 175.119Z" fill="#6EDDB5"/>
<path d="M147.154 193.05C148.134 190.986 143.595 186.783 137.015 183.664C130.435 180.544 124.308 179.689 123.328 181.754C122.348 183.819 126.888 188.021 133.467 191.141C140.047 194.26 146.175 195.115 147.154 193.05Z" fill="#2F2E41"/>
<path d="M50.7609 252.686C65.325 252.686 77.1315 240.884 77.1315 226.325C77.1315 211.766 65.325 199.964 50.7609 199.964C36.1969 199.964 24.3904 211.766 24.3904 226.325C24.3904 240.884 36.1969 252.686 50.7609 252.686Z" fill="#2F2E41"/>
<path d="M46.7553 247.013H38.744V261.361H46.7553V247.013Z" fill="#2F2E41"/>
<path d="M62.778 247.013H54.7667V261.361H62.778V247.013Z" fill="#2F2E41"/>
<path d="M45.4201 264.031C49.1072 264.031 52.0962 262.91 52.0962 261.528C52.0962 260.146 49.1072 259.026 45.4201 259.026C41.7329 259.026 38.744 260.146 38.744 261.528C38.744 262.91 41.7329 264.031 45.4201 264.031Z" fill="#2F2E41"/>
<path d="M61.4428 263.697C65.1299 263.697 68.1189 262.577 68.1189 261.194C68.1189 259.812 65.1299 258.692 61.4428 258.692C57.7557 258.692 54.7667 259.812 54.7667 261.194C54.7667 262.577 57.7557 263.697 61.4428 263.697Z" fill="#2F2E41"/>
<path d="M25.1806 201.81C23.0513 192.278 29.8579 182.646 40.3834 180.296C50.909 177.947 61.1678 183.77 63.2971 193.302C65.4264 202.835 58.4507 206.351 47.9251 208.7C37.3996 211.049 27.31 211.343 25.1806 201.81Z" fill="#E6E6E6"/>
<path d="M69.989 132.151C72.5889 125.351 72.9655 119.178 70.8301 118.362C68.6947 117.546 64.856 122.397 62.2561 129.196C59.6562 135.996 59.2797 142.169 61.415 142.985C63.5504 143.801 67.3891 138.95 69.989 132.151Z" fill="#2F2E41"/>
<path d="M67.7783 154.802C70.1112 140.432 60.3483 126.891 45.9723 124.559C31.5963 122.227 18.0511 131.987 15.7182 146.357C13.3853 160.728 23.1481 174.268 37.5241 176.6C51.9001 178.932 65.4454 169.173 67.7783 154.802Z" fill="#2F2E41"/>
<path d="M37.7426 171.268H29.7313V185.616H37.7426V171.268Z" fill="#2F2E41"/>
<path d="M53.7652 171.268H45.7539V185.616H53.7652V171.268Z" fill="#2F2E41"/>
<path d="M36.4074 188.285C40.0945 188.285 43.0835 187.165 43.0835 185.783C43.0835 184.401 40.0945 183.28 36.4074 183.28C32.7203 183.28 29.7313 184.401 29.7313 185.783C29.7313 187.165 32.7203 188.285 36.4074 188.285Z" fill="#2F2E41"/>
<path d="M52.43 187.952C56.1171 187.952 59.1061 186.831 59.1061 185.449C59.1061 184.067 56.1171 182.947 52.43 182.947C48.7429 182.947 45.7539 184.067 45.7539 185.449C45.7539 186.831 48.7429 187.952 52.43 187.952Z" fill="#2F2E41"/>
<path d="M16.1679 126.065C14.0386 116.533 20.8452 106.9 31.3707 104.551C41.8963 102.202 52.1551 108.025 54.2844 117.557C56.4137 127.09 49.438 130.605 38.9125 132.955C28.3869 135.304 18.2972 135.597 16.1679 126.065Z" fill="#6EDDB5"/>
<path d="M23.9595 143.996C24.9391 141.932 20.3995 137.729 13.82 134.61C7.24048 131.49 1.11256 130.635 0.132924 132.7C-0.846715 134.765 3.69289 138.967 10.2724 142.087C16.8519 145.206 22.9798 146.061 23.9595 143.996Z" fill="#2F2E41"/>
<path d="M67.6748 49.9266C67.1877 49.9272 66.7208 50.1208 66.3764 50.4651C66.0321 50.8093 65.8384 51.276 65.8378 51.7629V127.661C65.8384 128.148 66.0321 128.614 66.3764 128.959C66.7208 129.303 67.1877 129.497 67.6748 129.497H243.408C243.895 129.497 244.362 129.303 244.706 128.959C245.05 128.614 245.244 128.148 245.245 127.661V51.7629C245.244 51.276 245.05 50.8093 244.706 50.4651C244.362 50.1208 243.895 49.9272 243.408 49.9266H67.6748Z" fill="#6EDDB5"/>
<path d="M115.125 107.536C124.973 107.536 132.956 99.5561 132.956 89.7119C132.956 79.8677 124.973 71.8875 115.125 71.8875C105.277 71.8875 97.2942 79.8677 97.2942 89.7119C97.2942 99.5561 105.277 107.536 115.125 107.536Z" fill="white"/>
<path d="M155.37 87.3404C154.823 87.3494 154.301 87.5729 153.917 87.9627C153.534 88.3526 153.319 88.8776 153.319 89.4244C153.319 89.9713 153.534 90.4962 153.917 90.8861C154.301 91.2759 154.823 91.4994 155.37 91.5084H211.669C211.943 91.5131 212.215 91.4638 212.47 91.3634C212.725 91.2629 212.957 91.1132 213.154 90.9228C213.351 90.7325 213.509 90.5052 213.618 90.254C213.727 90.0027 213.785 89.7325 213.79 89.4587C213.794 89.1848 213.745 88.9128 213.644 88.6581C213.543 88.4035 213.393 88.1711 213.203 87.9744C213.012 87.7777 212.785 87.6204 212.533 87.5116C212.282 87.4029 212.011 87.3447 211.737 87.3404C211.715 87.34 211.692 87.34 211.669 87.3404H155.37Z" fill="white"/>
<path d="M155.37 75.2657C154.823 75.2747 154.301 75.4983 153.917 75.8881C153.534 76.278 153.319 76.8029 153.319 77.3498C153.319 77.8966 153.534 78.4216 153.917 78.8114C154.301 79.2013 154.823 79.4248 155.37 79.4338H183.484C183.758 79.4385 184.03 79.3892 184.285 79.2888C184.54 79.1883 184.773 79.0386 184.97 78.8482C185.166 78.6579 185.324 78.4306 185.433 78.1793C185.542 77.9281 185.6 77.6578 185.605 77.384C185.609 77.1102 185.56 76.8382 185.459 76.5835C185.358 76.3288 185.209 76.0965 185.018 75.8997C184.827 75.703 184.6 75.5458 184.348 75.437C184.097 75.3282 183.827 75.27 183.553 75.2657C183.53 75.2653 183.507 75.2653 183.484 75.2657H155.37Z" fill="white"/>
<path d="M155.37 99.99C154.823 99.999 154.301 100.222 153.917 100.612C153.534 101.002 153.319 101.527 153.319 102.074C153.319 102.621 153.534 103.146 153.917 103.536C154.301 103.926 154.823 104.149 155.37 104.158H211.669C211.943 104.163 212.215 104.113 212.47 104.013C212.725 103.913 212.957 103.763 213.154 103.572C213.351 103.382 213.509 103.155 213.618 102.904C213.727 102.652 213.785 102.382 213.79 102.108C213.794 101.834 213.745 101.562 213.644 101.308C213.543 101.053 213.393 100.821 213.203 100.624C213.012 100.427 212.785 100.27 212.533 100.161C212.282 100.052 212.011 99.9943 211.737 99.99C211.715 99.9896 211.692 99.9896 211.669 99.99H155.37Z" fill="white"/>
<path d="M428.795 240.379C430.93 239.563 430.554 233.39 427.954 226.59C425.354 219.791 421.515 214.94 419.38 215.756C417.244 216.572 417.621 222.745 420.221 229.545C422.821 236.344 426.659 241.195 428.795 240.379Z" fill="#2F2E41"/>
<path d="M447.175 279.503C461.551 277.171 471.314 263.63 468.981 249.26C466.648 234.889 453.103 225.13 438.727 227.462C424.351 229.794 414.588 243.334 416.921 257.705C419.254 272.075 432.799 281.835 447.175 279.503Z" fill="#2F2E41"/>
<path d="M454.968 274.171H446.957L448.524 291.354L454.982 289.6L454.968 274.171Z" fill="#2F2E41"/>
<path d="M437.503 274.215H429.491L431.059 291.398L437.225 289.6L437.503 274.215Z" fill="#2F2E41"/>
<path d="M430.831 292.206C434.508 291.937 437.408 290.601 437.307 289.223C437.206 287.844 434.143 286.945 430.466 287.214C426.789 287.482 423.889 288.818 423.99 290.196C424.091 291.575 427.154 292.474 430.831 292.206Z" fill="#2F2E41"/>
<path d="M474.145 237.588C478.472 231.733 480.488 225.886 478.65 224.528C476.811 223.17 471.813 226.816 467.486 232.672C463.16 238.527 461.143 244.374 462.982 245.732C464.821 247.09 469.819 243.444 474.145 237.588Z" fill="#2F2E41"/>
<path d="M516.898 231.698L372.548 211.695C371.423 211.537 370.406 210.94 369.72 210.034C369.035 209.128 368.737 207.988 368.891 206.862L385.119 89.8498C385.276 88.7248 385.873 87.7081 386.78 87.0228C387.686 86.3375 388.827 86.0395 389.953 86.1941L534.302 106.198C535.427 106.355 536.445 106.952 537.13 107.858C537.816 108.764 538.114 109.905 537.959 111.03L521.732 228.043C521.574 229.167 520.977 230.184 520.071 230.869C519.165 231.555 518.023 231.853 516.898 231.698Z" fill="#6EDDB5"/>
<path d="M465.185 195.18L391.491 184.968C391.399 184.956 391.308 184.936 391.219 184.908L434.442 129.388C434.707 129.042 435.059 128.772 435.462 128.606C435.866 128.44 436.306 128.384 436.738 128.444C437.17 128.504 437.578 128.678 437.921 128.947C438.264 129.216 438.529 129.572 438.69 129.977L456.465 173.718L457.317 175.811L465.185 195.18Z" fill="white"/>
<path opacity="0.2" d="M465.185 195.18L440.024 191.693L454.863 175.471L455.931 174.302L456.465 173.718L457.317 175.811L465.185 195.18Z" fill="black"/>
<path d="M506.218 200.866L442.478 192.033L457.317 175.811L458.385 174.642L477.721 153.501C478.055 153.183 478.452 152.939 478.887 152.785C479.321 152.631 479.784 152.57 480.243 152.606C480.703 152.642 481.15 152.774 481.555 152.994C481.96 153.213 482.315 153.516 482.596 153.882C482.666 153.985 482.73 154.092 482.787 154.203L506.218 200.866Z" fill="white"/>
<path d="M466.082 148.236C472.169 148.236 477.103 143.303 477.103 137.218C477.103 131.134 472.169 126.201 466.082 126.201C459.995 126.201 455.06 131.134 455.06 137.218C455.06 143.303 459.995 148.236 466.082 148.236Z" fill="white"/>
<path d="M405.758 97.0382L392.415 95.1891L390.565 108.527L403.909 110.376L405.758 97.0382Z" fill="#3F3D56"/>
<path d="M468.531 228.968C470.66 219.435 463.854 209.803 453.328 207.454C442.803 205.104 432.544 210.927 430.415 220.46C428.285 229.992 435.261 233.508 445.787 235.857C456.312 238.207 466.402 238.5 468.531 228.968Z" fill="#F2F2F2"/>
<path d="M448.4 292.163C452.077 291.894 454.976 290.559 454.876 289.181C454.775 287.802 451.712 286.903 448.035 287.171C444.357 287.44 441.458 288.775 441.559 290.154C441.66 291.532 444.722 292.432 448.4 292.163Z" fill="#2F2E41"/>
</g>
<defs>
<clipPath id="clip0">
<rect width="538" height="338" fill="white"/>
</clipPath>
</defs>
</svg>
